<svg id="Layer_1" data-name="Layer 1" xmlns="http://www.w3.org/2000/svg" xmlns:xlink="http://www.w3.org/1999/xlink" viewBox="0 0 473.6 473.6"><defs><style>.cls-1{fill:#cecccc;}.cls-2{fill:#f7f5f5;stroke:#263b5c;stroke-miterlimit:10;stroke-width:8px;}.cls-3{fill:none;stroke:#ddd;}.cls-4{fill:#00cf8b;}.cls-5{fill:url(#linear-gradient);}.cls-6{fill:url(#linear-gradient-2);}.cls-7{fill:url(#linear-gradient-3);}.cls-8{fill:url(#linear-gradient-4);}.cls-9{fill:url(#linear-gradient-5);}.cls-10{fill:url(#linear-gradient-6);}.cls-11{fill:url(#linear-gradient-7);}.cls-12{fill:url(#linear-gradient-8);}.cls-13{fill:url(#linear-gradient-9);}.cls-14{fill:url(#linear-gradient-10);}.cls-15{fill:url(#linear-gradient-11);}.cls-16{fill:url(#linear-gradient-12);}.cls-17{fill:url(#linear-gradient-13);}.cls-18{fill:url(#linear-gradient-14);}.cls-19{fill:url(#linear-gradient-15);}.cls-20{fill:url(#linear-gradient-16);}.cls-21{fill:url(#linear-gradient-17);}.cls-22{fill:url(#linear-gradient-18);}.cls-23{fill:url(#linear-gradient-19);}.cls-24{fill:url(#linear-gradient-20);}.cls-25{fill:url(#linear-gradient-21);}.cls-26{fill:url(#linear-gradient-22);}.cls-27{fill:url(#linear-gradient-23);}.cls-28{fill:url(#linear-gradient-24);}.cls-29{fill:url(#linear-gradient-25);}.cls-30{fill:url(#linear-gradient-26);}.cls-31{fill:#263b5c;}.cls-32{fill:#fff;}.cls-33{fill:url(#linear-gradient-27);}</style><linearGradient id="linear-gradient" x1="87.57" y1="311.95" x2="101.97" y2="311.95" gradientUnits="userSpaceOnUse"><stop offset="0" stop-color="#5a6cef"/><stop offset="1" stop-color="#66f"/></linearGradient><linearGradient id="linear-gradient-2" x1="87.95" y1="311.95" x2="101.59" y2="311.95" xlink:href="#linear-gradient"/><linearGradient id="linear-gradient-3" x1="181.51" y1="291.88" x2="195.9" y2="291.88" xlink:href="#linear-gradient"/><linearGradient id="linear-gradient-4" x1="181.89" y1="291.88" x2="195.53" y2="291.88" xlink:href="#linear-gradient"/><linearGradient id="linear-gradient-5" x1="275.45" y1="307.03" x2="289.84" y2="307.03" xlink:href="#linear-gradient"/><linearGradient id="linear-gradient-6" x1="275.83" y1="307.03" x2="289.46" y2="307.03" xlink:href="#linear-gradient"/><linearGradient id="linear-gradient-7" x1="111.06" y1="285.44" x2="125.45" y2="285.44" xlink:href="#linear-gradient"/><linearGradient id="linear-gradient-8" x1="111.44" y1="285.44" x2="125.07" y2="285.44" xlink:href="#linear-gradient"/><linearGradient id="linear-gradient-9" x1="205" y1="307.79" x2="219.39" y2="307.79" xlink:href="#linear-gradient"/><linearGradient id="linear-gradient-10" x1="205.37" y1="307.79" x2="219.01" y2="307.79" xlink:href="#linear-gradient"/><linearGradient id="linear-gradient-11" x1="298.93" y1="301.73" x2="313.33" y2="301.73" xlink:href="#linear-gradient"/><linearGradient id="linear-gradient-12" x1="299.31" y1="301.73" x2="312.95" y2="301.73" xlink:href="#linear-gradient"/><linearGradient id="linear-gradient-13" x1="134.54" y1="299.83" x2="148.94" y2="299.83" xlink:href="#linear-gradient"/><linearGradient id="linear-gradient-14" x1="134.92" y1="299.83" x2="148.56" y2="299.83" xlink:href="#linear-gradient"/><linearGradient id="linear-gradient-15" x1="228.48" y1="299.83" x2="242.87" y2="299.83" xlink:href="#linear-gradient"/><linearGradient id="linear-gradient-16" x1="228.86" y1="299.83" x2="242.49" y2="299.83" xlink:href="#linear-gradient"/><linearGradient id="linear-gradient-17" x1="322.42" y1="305.51" x2="336.81" y2="305.51" xlink:href="#linear-gradient"/><linearGradient id="linear-gradient-18" x1="322.8" y1="305.51" x2="336.43" y2="305.51" xlink:href="#linear-gradient"/><linearGradient id="linear-gradient-19" x1="158.03" y1="310.44" x2="172.42" y2="310.44" xlink:href="#linear-gradient"/><linearGradient id="linear-gradient-20" x1="158.41" y1="310.44" x2="172.04" y2="310.44" xlink:href="#linear-gradient"/><linearGradient id="linear-gradient-21" x1="251.96" y1="291.88" x2="266.36" y2="291.88" xlink:href="#linear-gradient"/><linearGradient id="linear-gradient-22" x1="252.34" y1="291.88" x2="265.98" y2="291.88" xlink:href="#linear-gradient"/><linearGradient id="linear-gradient-23" x1="345.9" y1="297.56" x2="360.29" y2="297.56" xlink:href="#linear-gradient"/><linearGradient id="linear-gradient-24" x1="346.28" y1="297.56" x2="359.92" y2="297.56" xlink:href="#linear-gradient"/><linearGradient id="linear-gradient-25" x1="369.39" y1="301.73" x2="383.78" y2="301.73" xlink:href="#linear-gradient"/><linearGradient id="linear-gradient-26" x1="369.76" y1="301.73" x2="383.4" y2="301.73" xlink:href="#linear-gradient"/><linearGradient id="linear-gradient-27" x1="98.64" y1="191.69" x2="170.76" y2="191.69" xlink:href="#linear-gradient"/></defs><path class="cls-1" d="M336.09,336.28c-84.28,84.47-162,143.53-246.51,59.25S5,174.45,89.24,90s221.08-84.62,305.55-.34S420.37,251.81,336.09,336.28Z"/><rect id="Rectangle_41-2" data-name="Rectangle 41-2" class="cls-2" x="59.54" y="154.76" width="352.26" height="213.63" rx="23.48"/><line id="Line_4" data-name="Line 4" class="cls-3" x1="69.77" y1="220.29" x2="389.46" y2="217.26"/><rect id="Rectangle_42" data-name="Rectangle 42" class="cls-4" x="223.93" y="192.64" width="161.36" height="9.85" rx="3.03"/><rect id="Rectangle_43" data-name="Rectangle 43" class="cls-4" x="283.78" y="175.21" width="101.51" height="10.61" rx="3.03"/><g id="Rectangle_44" data-name="Rectangle 44"><rect class="cls-5" x="87.57" y="282.03" width="14.39" height="59.85" rx="6.82"/><rect class="cls-6" x="87.95" y="282.41" width="13.64" height="59.09" rx="6.44"/></g><g id="Rectangle_48" data-name="Rectangle 48"><rect class="cls-7" x="181.51" y="241.88" width="14.39" height="100" rx="6.82"/><rect class="cls-8" x="181.89" y="242.26" width="13.64" height="99.24" rx="6.44"/></g><g id="Rectangle_52" data-name="Rectangle 52"><rect class="cls-9" x="275.45" y="272.18" width="14.39" height="69.7" rx="6.82"/><rect class="cls-10" x="275.83" y="272.56" width="13.64" height="68.94" rx="6.44"/></g><g id="Rectangle_45" data-name="Rectangle 45"><rect class="cls-11" x="111.06" y="229" width="14.39" height="112.88" rx="6.82"/><rect class="cls-12" x="111.44" y="229.38" width="13.64" height="112.12" rx="6.44"/></g><g id="Rectangle_49" data-name="Rectangle 49"><rect class="cls-13" x="205" y="273.7" width="14.39" height="68.18" rx="6.82"/><rect class="cls-14" x="205.37" y="274.08" width="13.64" height="67.42" rx="6.44"/></g><g id="Rectangle_53" data-name="Rectangle 53"><rect class="cls-15" x="298.93" y="261.58" width="14.39" height="80.3" rx="6.82"/><rect class="cls-16" x="299.31" y="261.95" width="13.64" height="79.54" rx="6.44"/></g><g id="Rectangle_46" data-name="Rectangle 46"><rect class="cls-17" x="134.54" y="257.79" width="14.39" height="84.09" rx="6.82"/><rect class="cls-18" x="134.92" y="258.17" width="13.64" height="83.33" rx="6.44"/></g><g id="Rectangle_50" data-name="Rectangle 50"><rect class="cls-19" x="228.48" y="257.79" width="14.39" height="84.09" rx="6.82"/><rect class="cls-20" x="228.86" y="258.17" width="13.64" height="83.33" rx="6.44"/></g><g id="Rectangle_54" data-name="Rectangle 54"><rect class="cls-21" x="322.42" y="269.15" width="14.39" height="72.73" rx="6.82"/><rect class="cls-22" x="322.8" y="269.53" width="13.64" height="71.97" rx="6.44"/></g><g id="Rectangle_47" data-name="Rectangle 47"><rect class="cls-23" x="158.03" y="279" width="14.39" height="62.88" rx="6.82"/><rect class="cls-24" x="158.41" y="279.38" width="13.64" height="62.12" rx="6.44"/></g><g id="Rectangle_51" data-name="Rectangle 51"><rect class="cls-25" x="251.96" y="241.88" width="14.39" height="100" rx="6.82"/><rect class="cls-26" x="252.34" y="242.26" width="13.64" height="99.24" rx="6.44"/></g><g id="Rectangle_55" data-name="Rectangle 55"><rect class="cls-27" x="345.9" y="253.24" width="14.39" height="88.63" rx="6.82"/><rect class="cls-28" x="346.28" y="253.62" width="13.64" height="87.88" rx="6.44"/></g><g id="Rectangle_56" data-name="Rectangle 56"><rect class="cls-29" x="369.39" y="261.58" width="14.39" height="80.3" rx="6.82"/><rect class="cls-30" x="369.76" y="261.95" width="13.64" height="79.54" rx="6.44"/></g><path class="cls-31" d="M206.91,106.92c-3.23-5.74-12.18-21.19-30.75-32A82.66,82.66,0,0,0,148.48,65c-26.14-4.4-49.37,2.52-69,20.33-34.93,31.75-35.38,87.1-1.15,119.21,17.78,16.68,39,24.37,63.27,22.19,27.06-2.44,47.5-15.53,62-37.5a.47.47,0,0,0,0-.1c5.56-10.3,7.59-14.79,8.3-16.75a4.38,4.38,0,0,1,.29-1.51c3.55-10.93,4.6-23.92,3.09-37.64a77.47,77.47,0,0,0-3.53-16A86.84,86.84,0,0,0,206.91,106.92Zm-36.29,97.36a3.24,3.24,0,0,1-1.48,2.36q-34.5,18.35-69-.1a3.27,3.27,0,0,1-1.4-2.4c-.1-7.11-.2-14.23,0-21.34.23-8.9,6.85-15.15,15.82-15.2,3.41,0,6.82,0,10.24,0h10c6.64,0,13.27,0,19.91,0,9,0,15.5,5.89,15.9,14.77C170.91,189.66,170.72,197,170.62,204.28Zm-59.56-71.75a23.67,23.67,0,1,1,23.75,23.63A23.53,23.53,0,0,1,111.06,132.53Zm71,64.42c0-4.11,0-7.7,0-11.29,0-15.43-6.66-24.5-21.64-29.15,8.34-9.89,11.48-21.07,8.07-33.6a34.14,34.14,0,0,0-14-19.48,35.15,35.15,0,0,0-44.43,3.95c-10.92,10.59-16.18,31.38-1.31,49a67.1,67.1,0,0,0-7,2.82c-9.48,5.19-14.2,13.35-14.46,24.1-.11,4.42,0,8.85,0,13.5C71,183.58,59,155.39,66.89,127a70.31,70.31,0,0,1,134.58-3.49C211,152.24,200.08,181.62,182.09,197Z"/><path class="cls-32" d="M182.09,197V185.66c0-15.43-6.66-24.5-21.65-29.15,8.34-9.89,11.48-21.07,8.07-33.61a34.15,34.15,0,0,0-14-19.47,35.16,35.16,0,0,0-44.44,3.95c-10.91,10.59-16.17,31.38-1.31,49a61.93,61.93,0,0,0-7,2.83c-9.48,5.18-14.21,13.34-14.47,24.09-.11,4.42,0,8.85,0,13.51C71,183.58,59,155.39,66.89,127a70.31,70.31,0,0,1,134.58-3.5C211,152.24,200.08,181.62,182.09,197Z"/><path class="cls-33" d="M134.77,167.6c6.64,0,13.27,0,19.91,0,9,0,15.49,5.88,15.9,14.77.32,7.29.14,14.61,0,21.91a3.28,3.28,0,0,1-1.48,2.37q-34.5,18.33-69-.11a3.3,3.3,0,0,1-1.39-2.4c-.1-7.11-.2-14.23,0-21.34.23-8.9,6.86-15.14,15.82-15.2,3.41,0,6.82,0,10.24,0h10Z"/><path class="cls-4" d="M111.06,132.52a23.67,23.67,0,1,1,23.75,23.64A23.53,23.53,0,0,1,111.06,132.52Z"/></svg>