<svg id="Layer_1" data-name="Layer 1" xmlns="http://www.w3.org/2000/svg" xmlns:xlink="http://www.w3.org/1999/xlink" viewBox="0 0 473.6 473.6"><defs><style>.cls-1{fill:#cecccc;}.cls-2{fill:#263b5c;}.cls-3{fill:#fff;}.cls-4{fill:url(#linear-gradient);}.cls-5{fill:url(#linear-gradient-2);}.cls-6{fill:#00cf8b;}</style><linearGradient id="linear-gradient" x1="281.19" y1="1510.19" x2="320.96" y2="1510.19" gradientTransform="matrix(1, 0, 0, -1, 0, 1624.81)" gradientUnits="userSpaceOnUse"><stop offset="0" stop-color="#5a6cef"/><stop offset="1" stop-color="#66f"/></linearGradient><linearGradient id="linear-gradient-2" x1="322.6" y1="1364.26" x2="405.9" y2="1364.26" xlink:href="#linear-gradient"/></defs><path class="cls-1" d="M344.17,346.46c-84.28,84.47-162,143.53-246.5,59.25s-84.62-221.08-.34-305.55,221.07-84.62,305.54-.34S428.45,262,344.17,346.46Z"/><path class="cls-2" d="M343.8,257.6V369.8c0,17.2-10.3,27.4-27.5,27.4H121.2c-17.4,0-27.6-10.2-27.6-27.7V99.7c0-17.7,10.1-27.8,27.9-27.8q75.3,0,150.5-.1a12.41,12.41,0,0,1,9.6,4c19.3,19.5,38.6,38.8,58.1,58.1a12.87,12.87,0,0,1,4.2,9.9C343.7,181.7,343.8,219.7,343.8,257.6ZM268.7,84.4h-148C110.5,84.4,106,89,106,99.3V369.9c0,10.3,4.6,14.9,14.7,14.9H316.6c10,0,14.6-4.6,14.6-14.5V147.1h-35c-17.2,0-27.5-10.3-27.6-27.4C268.7,108,268.7,96.4,268.7,84.4Zm52.3,50q-20-20-39.7-39.6c0,9.2-.3,19,.1,28.7.2,6.1,5.5,10.8,11.8,10.9C302.6,134.6,311.9,134.4,321,134.4Z"/><path class="cls-3" d="M268.7,84.4v35.2c0,17.1,10.3,27.4,27.6,27.4h35V370.2c0,9.9-4.7,14.5-14.6,14.5H120.8c-10.1,0-14.7-4.6-14.7-14.9V99.2c0-10.3,4.5-14.9,14.7-14.9H264.3C265.6,84.4,266.9,84.4,268.7,84.4Z"/><path class="cls-4" d="M321,134.4c-9.1,0-18.4.1-27.8,0-6.2-.1-11.5-4.8-11.8-10.9-.4-9.7-.1-19.4-.1-28.7C294.4,107.9,307.7,121.2,321,134.4Z"/><path class="cls-2" d="M230.8,278.1H175.7c-4.7,0-7.2-2.2-7.2-6.3,0-3.5,1.9-5.5,5.3-6.1a18.48,18.48,0,0,1,2.3-.1H285.9c4.7,0,7.1,1.5,7.7,4.9.8,4.4-2,7.5-7,7.6H230.8Z"/><path class="cls-2" d="M230.8,303.2H175.7c-4.7,0-7.2-2.3-7.2-6.3,0-3.5,1.9-5.5,5.4-6.1a16.08,16.08,0,0,1,3.1-.1H287.9c3.6.3,5.8,2.6,5.8,6.1s-2.2,6-6,6.3c-1,.1-2.1,0-3.1,0C266.7,303.2,248.7,303.2,230.8,303.2Z"/><path class="cls-2" d="M231.2,328.2H175.7c-4.8,0-7.2-2.2-7.2-6.2,0-3.5,1.9-5.5,5.3-6.2a12.1,12.1,0,0,1,1.9-.1H286.6c4.5,0,7,2.2,7.1,6,.1,4-2.4,6.4-7.1,6.4H244C239.8,328.2,235.5,328.2,231.2,328.2Z"/><path class="cls-2" d="M156.2,271.7a6.36,6.36,0,1,1-6.6-6A5.91,5.91,0,0,1,156.2,271.7Z"/><path class="cls-2" d="M149.7,290.7a6,6,0,0,1,6.5,6.2c0,3.8-2.5,6.3-6.4,6.3a6.25,6.25,0,1,1-.1-12.5Z"/><path class="cls-2" d="M149.6,328.2a6,6,0,0,1-6.2-6.5c.1-3.6,2.7-5.9,6.4-5.9a6.06,6.06,0,0,1,6.4,6.3C156.2,325.8,153.5,328.2,149.6,328.2Z"/><path class="cls-5" d="M381.7,194.8l20.4,7.1,2.6,2.4,1.2,2.5v6.8s-2.1,6.2-4.7,17.1c-.9,3.7-5.3,21.7-5.3,21.7L390.1,276s-11.7,34-12.1,35.3-5.3,11.2-5.5,11.8-4.6,3.2-4.6,3.2l-39-15.6-6.3-4.1,14.3-47,20.2-39.7,14.6-21.8Z"/><path class="cls-2" d="M435.6,227.7c-5.9,25.6-22,51.3-33.6,76.7-3.9,8.5-8.2,16.9-9,26.6-.3,3.2-2.5,4.8-5.5,4.5s-4.6-2.4-4.2-5.3c.4-3.8.6-7.9,2.1-11.3,11-24.3,22.5-48.3,33.3-72.7,3.1-6.9,4.9-14.4,6.6-21.8a16.13,16.13,0,0,0-9.7-18.2c-.8,4.8-1.7,9.5-2.5,14.3-.5,2.6-.9,5.2-1.4,7.8-.7,3.7-2.8,5.3-5.9,4.7-2.9-.5-4.5-3.1-3.9-6.6.9-5.1,1.9-10.2,2.7-15.4.8-4.6-.7-7.5-5-9.3s-8.4-3.5-12.6-5.1c-5.2-1.9-8.3-1.2-11.3,3.8-7.4,12.2-15.1,24.3-21.6,36.9a397.79,397.79,0,0,0-27.5,68.6c13.7,5.5,27.3,10.9,41.3,16.5,4.5-10.3,9.3-20.1,13.2-30.3,5.4-14.3,10.2-28.8,15.2-43.2.3-.8.5-1.7.8-2.5,1.3-3.2,3.4-4.4,6.1-3.5,3,.9,4.2,3.2,3.2,6.5-9.7,34-22.6,66.6-40.6,97.1-7.2,12.2-14.9,24.3-25,34.6-5.2,5.3-13.3,13.2-22.1,12.8a2.2,2.2,0,0,1-.8-.1c-6.4-2-9.6-6.8-11.3-13-2.8-9.9.3-36.9,2.2-45,3.3-14.4,6.6-28.9,11.3-42.9,9.7-28.6,21.1-56.6,37.3-82.3,4.9-7.8,8.5-16.6,16.2-22.5,1.5-1.1,2.3-3.2,3.1-5a72.82,72.82,0,0,0,3.1-7.7c2.2-6.6,6.1-11.2,13.3-12.4h1.3c5.9,2.2,11.9,4.2,17.6,6.6,7.8,3.3,10.6,9.9,7.8,17.9-.9,2.5-1.8,4.9-2.7,7.5,1.1.6,1.9,1.1,2.8,1.5A27.48,27.48,0,0,1,435.6,227.7ZM323.5,315.4c-1.6,6.5-3.2,12.5-4.6,18.5-3.3,15-5.2,30-2.3,45.4.9,4.8,3.5,6.2,7.4,3.3a74.46,74.46,0,0,0,11.3-9.6c11.1-11.8,19.1-25.7,26.7-39.8a8.08,8.08,0,0,0,.5-2.1C349.6,325.8,336.7,320.7,323.5,315.4Zm62.9-129.7c7,2.8,13.6,5.4,20.4,8.1,1.3-3.3,2.5-6.4,3.7-9.5,1.1-2.7.2-4.5-2.4-5.5-4.2-1.7-8.4-3.3-12.6-5-2.6-1.1-4.2-.1-5.2,2.4C389,179.2,387.8,182.3,386.4,185.7Z"/><path class="cls-6" d="M323.5,315.4c13.3,5.3,26.1,10.4,39.1,15.6a8.08,8.08,0,0,1-.5,2.1c-7.6,14.1-15.6,28-26.7,39.8a79.66,79.66,0,0,1-11.3,9.6c-3.9,2.8-6.5,1.5-7.4-3.3-2.9-15.3-1-30.4,2.3-45.4C320.2,327.9,321.8,321.9,323.5,315.4Z"/><path class="cls-3" d="M386.4,185.7c1.4-3.4,2.7-6.5,3.9-9.5,1-2.4,2.6-3.4,5.2-2.4,4.2,1.7,8.4,3.3,12.6,5,2.6,1,3.5,2.8,2.4,5.5-1.3,3-2.4,6.1-3.7,9.5C400,191.1,393.3,188.5,386.4,185.7Z"/><circle class="cls-3" cx="177.7" cy="172.7" r="12.5"/><path class="cls-2" d="M177.7,188.7a16,16,0,1,1,16-16A16,16,0,0,1,177.7,188.7Zm0-25a9,9,0,1,0,9,9A9,9,0,0,0,177.7,163.7Z"/><polygon class="cls-3" points="154.8 229.4 184.3 200.1 200.6 213.3 235.1 178 283.7 229.4 154.8 229.4"/><path class="cls-2" d="M283.7,232.9H154.8a3.39,3.39,0,0,1-3.2-2.1,3.57,3.57,0,0,1,.8-3.8l29.4-29.3a3.3,3.3,0,0,1,4.6-.2l13.8,11.3,32.3-33.1a3.32,3.32,0,0,1,2.5-1h0a3.58,3.58,0,0,1,2.5,1.1l48.6,51.4a3.41,3.41,0,0,1,.7,3.7A3.36,3.36,0,0,1,283.7,232.9Zm-120.5-7H275.7L235.1,183l-32,32.8a3.53,3.53,0,0,1-4.7.3l-13.9-11.3Z"/></svg>