<svg id="Layer_1" data-name="Layer 1" xmlns="http://www.w3.org/2000/svg" xmlns:xlink="http://www.w3.org/1999/xlink" viewBox="0 0 473.48 472.7"><defs><style>.cls-1{fill:#cecccc;}.cls-2,.cls-3,.cls-4{stroke:#263b5c;stroke-miterlimit:10;stroke-width:9px;}.cls-2{fill:url(#linear-gradient);}.cls-3{fill:#fff;}.cls-4{fill:#00cf8b;}</style><linearGradient id="linear-gradient" x1="61.12" y1="194.69" x2="298.58" y2="194.69" gradientTransform="matrix(1, 0, 0, -1, 0, 473.21)" gradientUnits="userSpaceOnUse"><stop offset="0" stop-color="#5a6cef"/><stop offset="1" stop-color="#66f"/></linearGradient></defs><path class="cls-1" d="M336.82,342c-84.28,84.47-162,143.53-246.5,59.25S5.7,180.18,90,95.71s221.07-84.62,305.54-.35S421.1,257.53,336.82,342Z"/><path class="cls-2" d="M279.48,389q-54.15,0-108.3-.1a95.91,95.91,0,0,1-15.1-1.1c-59.3-8.9-100.3-61.6-94.4-121.1,6.1-61.8,63.5-107,125-98.4C269,179.8,310,273.9,262.38,341.9c-3.8,5.4-3.9,6.4,0,11.8,1.3,1.8,2.6,3.8,4.4,4.8,29.2,26.4,16.7,16,31.8,31.3C297.28,389.8,280.28,389,279.48,389Z"/><path class="cls-3" d="M161.08,303.1c15.1-15.3,2.6-4.9,31.8-31.3,1.8-1,3.2-3,4.4-4.8,3.8-5.4,3.8-6.3,0-11.8-47.6-68-6.6-162.1,75.7-173.6,61.5-8.6,118.9,36.6,125,98.4,5.9,59.5-35.1,112.2-94.4,121.1a109.57,109.57,0,0,1-15.1,1.1q-54.15.15-108.3.1C179.28,302.3,162.28,303.1,161.08,303.1Z"/><circle class="cls-4" cx="261.08" cy="187.4" r="12.6"/><circle class="cls-4" cx="290.38" cy="187.4" r="12.6"/><circle class="cls-4" cx="319.48" cy="187.2" r="12.6"/></svg>