<svg id="Layer_1" data-name="Layer 1" xmlns="http://www.w3.org/2000/svg" xmlns:xlink="http://www.w3.org/1999/xlink" viewBox="0 0 473.6 478.68"><defs><style>.cls-1{fill:#cecccc;}.cls-2{fill:#263b5c;}.cls-3{fill:#fff;}.cls-4{fill:url(#linear-gradient);}.cls-5{fill:url(#linear-gradient-2);}.cls-6{fill:url(#linear-gradient-3);}.cls-7{fill:#00cf8b;}</style><linearGradient id="linear-gradient" x1="292.43" y1="-852.66" x2="327.75" y2="-852.66" gradientTransform="matrix(1, 0, 0, -1, 0, -717.19)" gradientUnits="userSpaceOnUse"><stop offset="0" stop-color="#5a6cef"/><stop offset="1" stop-color="#66f"/></linearGradient><linearGradient id="linear-gradient-2" x1="184.11" y1="164.37" x2="208.51" y2="164.37" gradientTransform="matrix(1, 0, 0, 1, 0, 0)" xlink:href="#linear-gradient"/><linearGradient id="linear-gradient-3" x1="174.01" y1="194.52" x2="299.71" y2="194.52" gradientTransform="matrix(1, 0, 0, 1, 0, 0)" xlink:href="#linear-gradient"/></defs><path class="cls-1" d="M360.44,351.58c-84.28,84.47-162,143.53-246.5,59.25s-84.62-221.07-.34-305.54,221.07-84.63,305.54-.35S444.72,267.11,360.44,351.58Z"/><path class="cls-2" d="M348,262.45v99.7c0,15.2-9.2,24.4-24.5,24.4H150.24c-15.5,0-24.5-9.1-24.5-24.6V122.25c0-15.7,9-24.7,24.8-24.7q66.9,0,133.7-.1a11.18,11.18,0,0,1,8.6,3.5q25.65,26,51.6,51.6a11.43,11.43,0,0,1,3.7,8.8C347.94,195.05,348,228.75,348,262.45Zm-66.7-153.9H149.94c-9,0-13.1,4.1-13.1,13.2v240.4c0,9.1,4,13.2,13.1,13.2h174c8.9,0,13-4.1,13-12.9V164.15h-31.1c-15.3,0-24.5-9.1-24.5-24.3Zm46.4,44.5c-11.8-11.8-23.6-23.5-35.2-35.2,0,8.2-.2,16.8.1,25.5.2,5.4,4.9,9.6,10.5,9.7C311.34,153.15,319.74,153.05,327.74,153.05Z"/><path class="cls-3" d="M281.34,108.55v31.2c0,15.2,9.2,24.3,24.5,24.3h31.1v198.3c0,8.8-4.1,12.9-13,12.9h-174c-9,0-13.1-4.1-13.1-13.2V121.65c0-9.1,4-13.2,13.1-13.2h127.4C278.54,108.55,279.64,108.55,281.34,108.55Z"/><path class="cls-4" d="M327.74,153.05c-8.1,0-16.4.1-24.7,0-5.5-.1-10.3-4.3-10.5-9.7-.3-8.6-.1-17.3-.1-25.5C304.14,129.45,315.94,141.25,327.74,153.05Z"/><circle class="cls-5" cx="196.31" cy="164.37" r="12.2"/><path class="cls-2" d="M196.31,179.87a15.6,15.6,0,1,1,15.6-15.6A15.62,15.62,0,0,1,196.31,179.87Zm0-24.3a8.8,8.8,0,1,0,8.8,8.8A8.81,8.81,0,0,0,196.31,155.57Z"/><polygon class="cls-6" points="174.01 219.57 202.71 190.97 218.61 203.97 252.31 169.47 299.71 219.57 174.01 219.57"/><path class="cls-2" d="M299.71,223H174a3.25,3.25,0,0,1-3.1-2.1,3.57,3.57,0,0,1,.7-3.7l28.7-28.6a3.37,3.37,0,0,1,4.5-.2l13.5,11,31.5-32.2a3.1,3.1,0,0,1,2.4-1h0a3.19,3.19,0,0,1,2.4,1.1l47.4,50.1a3.35,3.35,0,0,1,.6,3.7A3.1,3.1,0,0,1,299.71,223Zm-117.5-6.8h109.6l-39.6-41.9-31.2,32a3.38,3.38,0,0,1-4.5.3l-13.5-11Z"/><path class="cls-2" d="M328.7,303c-1.29,3.13-2.18,6.53-4,9.34-3.67,5.73-8.81,8.23-17.32,9.26v2.05q0,22.46,0,44.91a6.06,6.06,0,0,1-1.68,4.69c-2.15,2.06-5.1,1.84-7.66-.27-7-5.74-13.83-11.7-21.12-17-12.14-8.86-25.23-16.05-39.7-20.45-3.19-1-6.47-1.66-10.3-2.64,1.05,4.32,2,8.08,2.87,11.84a16.84,16.84,0,0,1,.76,3.44,5.27,5.27,0,0,1-5.53,5.26c-4.84,0-9.69,0-14.76,0a16.78,16.78,0,0,0,.62,2.1c3.11,7,6.08,14.1,9.42,21,2.41,5,.31,8.86-5.22,8.86H190.43c-3.43,0-5.06-1.05-6.2-4.19-5.57-15.3-9.42-31-10.4-47.27-.1-1.53-.45-2.28-2.19-2.69a31.88,31.88,0,0,1-24.73-32.34c.39-14.75,11.56-27.54,26.49-30.21a36.43,36.43,0,0,1,6.18-.46c10.47-.05,21-.28,31.42,0,14.8.45,28.57-3.18,41.76-9.51,16.34-7.84,30.89-18.31,44.29-30.44.48-.43.94-.9,1.44-1.32a5.33,5.33,0,0,1,8.9,4.06c0,4.44,0,8.87,0,13.31v34.31c1.58.24,3.11.33,4.57.7,8.93,2.3,14.37,8,16.39,17a9.34,9.34,0,0,0,.34,1Zm-32.09,54.32V243c-.6.45-1,.76-1.43,1.09a194.26,194.26,0,0,1-32.71,21.82c-10.43,5.44-21.28,9.7-32.92,11.76-2.65.47-5.34.78-8,1.16v42.7C250.63,324.77,274.22,339.59,296.61,357.36Zm-85.88-78.3a1.89,1.89,0,0,0-.46-.14c-10.94,0-21.89-.23-32.82.07-10.73.29-19.68,9.8-19.9,20.54a21.34,21.34,0,0,0,21.4,22c10.11.05,20.23,0,30.34,0,.46,0,.91,0,1.44-.06Zm-26.39,53.1c.84,14.78,4.2,28.82,8.85,42.53h14.05c-6.36-13.56-11-27.48-12.24-42.53H184.34Zm123.15-21.42A10.51,10.51,0,0,0,318,299.9c-.13-5.71-5.14-10.59-10.55-10.2Zm-91.2,21.54H205.61c.54,3.59,1.06,7,1.59,10.43h10.89C217.49,339.2,216.9,335.79,216.29,332.28Z"/><path class="cls-7" d="M296.61,357.36c-22.39-17.77-46-32.59-75.09-35.85v-42.7c2.69-.38,5.38-.69,8-1.16,11.64-2.06,22.49-6.32,32.92-11.76a194.26,194.26,0,0,0,32.71-21.82c.41-.33.83-.64,1.43-1.09Z"/><path class="cls-7" d="M210.73,279.06v42.38c-.53,0-1,.06-1.44.06-10.11,0-20.23,0-30.34,0a21.34,21.34,0,0,1-21.4-22c.22-10.74,9.17-20.25,19.9-20.54,10.93-.3,21.88-.08,32.82-.07A1.89,1.89,0,0,1,210.73,279.06Z"/><path class="cls-3" d="M184.34,332.16H195c1.2,15,5.88,29,12.24,42.53H193.19C188.54,361,185.18,346.94,184.34,332.16Z"/><path class="cls-3" d="M307.49,310.74v-21c5.41-.39,10.42,4.49,10.55,10.2A10.51,10.51,0,0,1,307.49,310.74Z"/><path class="cls-3" d="M216.29,332.28c.61,3.51,1.2,6.92,1.8,10.43H207.2c-.53-3.42-1-6.84-1.59-10.43Z"/></svg>