<svg id="Layer_1" data-name="Layer 1" xmlns="http://www.w3.org/2000/svg" xmlns:xlink="http://www.w3.org/1999/xlink" viewBox="0 0 473.6 473.6"><defs><style>.cls-1{fill:#cecccc;}.cls-2{fill:#263b5c;}.cls-3{fill:#fff;}.cls-4{fill:#00cf8b;}.cls-5{fill:url(#linear-gradient);}</style><linearGradient id="linear-gradient" x1="243.6" y1="1508.87" x2="370.78" y2="1508.87" gradientTransform="matrix(1, 0, 0, -1, 0, 1662.01)" gradientUnits="userSpaceOnUse"><stop offset="0" stop-color="#5a6cef"/><stop offset="1" stop-color="#66f"/></linearGradient></defs><path class="cls-1" d="M341.78,349.3c-84.28,84.47-162,143.53-246.5,59.25S10.66,187.48,94.94,103,316,18.39,400.48,102.66,426.06,264.83,341.78,349.3Z"/><path class="cls-2" d="M335,145.81c0-3.15-.82-5.71-3.61-7.34H202.49c-3,1.17-4.19,3.38-4.19,6.64.12,4.31,0,8.73,0,13.16-9.32,2.45-18.4,4.89-27.6,7.34l-19.57,5.24c-4.77,1.28-6,3.49-4.77,8.38,7.92,29.82,15.95,59.51,24,89.33.58,2.33.35,3.84-1.4,5.59-5.94,5.71-11.65,11.53-17.47,17.35-.7.7-1.28,1.28-2.21,2.1-4.31-5.94-10.25-6.87-16.89-6.76-13.74.12-27.37,0-41.11,0-11.65,0-15.14,2.33-19.45,12.81v88.86c1.28,4.2,3,8.16,7.11,10.25a19.66,19.66,0,0,0,8.73,2.45c16.19.23,32.38.23,48.57.12,7.1,0,12.11-3.5,14.79-10.25a4.44,4.44,0,0,1,.69-1.17c2.57,2.1,4.9,4.19,7.34,6.06a24.91,24.91,0,0,0,16,5.36H328.5c4.31,0,6.18-2,6.18-6.41V349.73C335,282,335,213.82,335,145.81ZM134.59,391.19H89.41c-5.36,0-7.11-1.63-7.11-7.1V304.2c0-5.36,1.63-7.11,7.11-7.11h42.27c2,0,3.85,0,5.71.12,2.45.12,4,1.86,4.43,4.31a23.66,23.66,0,0,1,.11,2.79v79.31C141.93,389.68,140.42,391.19,134.59,391.19ZM157.3,180.05c13.75-3.73,27.26-7.34,41.12-11.07,0,6.18,0,12.23-.12,18.17,0,.47-.93,1-1.51,1.28-5.13,1.75-5.94,3-5.25,8.5a13.75,13.75,0,0,1-8.61,14.8c-5.13,2.09-5.94,3.72-4.55,9.08,6.29,23.06,12.47,46.12,18.75,69.18.24.81.35,1.63.59,2.56H187.58C177.57,255.05,167.44,217.67,157.3,180.05Zm41,32.61v40.53c-.12,0-.23.11-.35.11-.23-.93-.58-1.86-.82-2.91-2.56-9.43-5-18.75-7.68-28.18-.47-1.52-.12-2.22,1.16-3.15A96.55,96.55,0,0,0,198.3,212.66Zm36,164.21h37.5c5.24,0,8.62,4.31,7.33,9.08a6.83,6.83,0,0,1-6.28,5.24,18.37,18.37,0,0,1-2.57,0h-93.4A18.84,18.84,0,0,1,163.13,386c-3-2.91-6.41-5.47-9.44-8.27a4.91,4.91,0,0,1-1.39-3c-.12-22.48-.12-44.84,0-67.32a3.84,3.84,0,0,1,.7-2.56c7.1-7.22,14.2-14.33,21.66-21.78,1.28,4.89,2.44,9.32,3.61,13.86,1.28,4.89,2.56,5.82,7.45,5.82h98.64c4.31.12,7.46,3.15,7.57,7.11s-3.26,7.22-7.68,7.22H234.4c-4.07,0-6.64,2.09-6.52,5.24s2.56,5,6.52,5h64.41a26.72,26.72,0,0,1,3,.11,7.17,7.17,0,0,1,6.06,7.22,7.06,7.06,0,0,1-6.29,7,21.7,21.7,0,0,1-2.79.12H233.94c-3.61.11-5.94,2.09-6.06,5s2.33,5.25,6.06,5.25h56.48a7.4,7.4,0,0,1,6.64,7.22,7.26,7.26,0,0,1-6.52,7,25.5,25.5,0,0,1-3,0H234.4c-4.07,0-6.64,2-6.52,5.24C227.88,374.89,230.33,376.87,234.29,376.87ZM252.45,270a14.33,14.33,0,1,1,14.45,14.32A14.42,14.42,0,0,1,252.45,270Zm72.09,121.12H288.09a19,19,0,0,0,0-14.09c6.64-.12,12.23-2.22,16-7.81s4-11.29,1.39-17.23a63.16,63.16,0,0,0,6.18-3.73,17.38,17.38,0,0,0,4.31-22,10.52,10.52,0,0,1-1.17-4.54c-.11-19.92,0-39.83-.11-59.87a18.32,18.32,0,0,0-.24-3.61,5,5,0,0,0-9.78,0,18.48,18.48,0,0,0-.23,3.61v55.91c-1.4-.24-2.57-.35-3.85-.47,2.68-7.34,1.63-13.86-3.84-19.45s-12.46-5.24-19.68-5c13.27-10.48,17-19.8,12.23-31.67A24,24,0,0,0,266,245.62c-11.76.35-20.73,7.8-23.4,19.1-2.33,10,1.63,21.31,13.74,27.83H228.81c0-1.05-.11-1.86-.11-2.79V197.87c0-2,.46-2.91,2.56-3.61,8.38-2.8,13.51-8.85,16-17.47h38.55c1.17,4.42,3,8.73,6.52,11.64a43.81,43.81,0,0,0,9.79,5.94c1.51.82,2.21,1.4,2.21,3.15-.12,4.31-.12,8.73,0,13s3.38,6.52,6.87,5.24a4.46,4.46,0,0,0,3.26-4.19c.12-7.22.12-14.33,0-21.55-.11-2.91-2-4.31-5.47-4.65-6.76-.82-11.3-4.43-12.81-10.49-.24-.93-.24-2-.47-3-.7-4-2.33-5.48-6.4-5.48H243.84c-4,0-5.59,1.4-6.29,5.24-1.63,9.32-4.78,12.35-14.09,13.75-2.92.46-4.55,2.09-4.78,5.12a21.7,21.7,0,0,0-.12,2.79v99.23h-9.78V149.07H324.54Z"/><path class="cls-3" d="M256.53,292.55H229.05c0-1.05-.12-1.86-.12-2.79V197.87c0-2,.46-2.91,2.56-3.61,8.39-2.8,13.51-8.85,16-17.47H286c1.16,4.42,3,8.73,6.52,11.64a43.75,43.75,0,0,0,9.78,5.94c1.51.82,2.21,1.4,2.21,3.15-.11,4.31-.11,8.73,0,13s3.38,6.52,6.87,5.24a4.48,4.48,0,0,0,3.27-4.19c.11-7.22.11-14.33,0-21.55-.12-2.91-2-4.19-5.48-4.65-6.75-.82-11.3-4.43-12.81-10.49-.23-.93-.23-2-.47-3-.69-4-2.32-5.48-6.4-5.48H244.07c-4,0-5.59,1.4-6.29,5.24C236.15,181,233,184,223.69,185.41c-2.91.46-4.54,2.09-4.78,5.12a23.66,23.66,0,0,0-.11,2.79v99.23h-9.9V149.19H324.66v242H288.21a19.29,19.29,0,0,0,0-14.2c6.64-.12,12.23-2.22,16-7.81s4-11.29,1.4-17.23a63,63,0,0,0,6.17-3.73,17.37,17.37,0,0,0,4.31-22,10.51,10.51,0,0,1-1.16-4.54c-.12-19.92,0-39.83-.12-59.87a19.1,19.1,0,0,0-.23-3.61,5,5,0,0,0-9.78,0,17.72,17.72,0,0,0-.24,3.61v55.91c-1.39-.24-2.56-.35-3.84-.47,2.56-7.34,1.63-13.86-3.84-19.45s-12.46-5.24-19.69-5c13.28-10.48,17-19.8,12.23-31.67a24,24,0,0,0-23.29-15.49c-11.76.35-20.73,7.8-23.41,19.1C240.46,274.62,244.42,285.91,256.53,292.55Z"/><path class="cls-3" d="M174.66,283.12c1.28,4.89,2.44,9.31,3.61,13.86,1.28,4.89,2.56,5.82,7.45,5.82h98.64c4.31.12,7.46,3.14,7.57,7.1s-3.14,7.22-7.68,7.22H234.52c-4.08,0-6.64,2.1-6.52,5.24s2.56,5,6.52,5h64.4a24.59,24.59,0,0,1,3,.12,7.17,7.17,0,0,1,6.06,7.22,7.06,7.06,0,0,1-6.29,7,23.83,23.83,0,0,1-2.8.11H234.05c-3.61.12-5.94,2.1-5.94,5s2.33,5.24,6.06,5.24h56.48a7.4,7.4,0,0,1,6.64,7.22,7.27,7.27,0,0,1-6.64,7,25.34,25.34,0,0,1-3,0H234.75c-4.07,0-6.64,2-6.52,5.24s2.56,5,6.52,5h37.5c5.24,0,8.62,4.31,7.34,9.08a7,7,0,0,1-6.29,5.24,18.23,18.23,0,0,1-2.56,0h-93.4a18.86,18.86,0,0,1-13.75-5.24c-3-2.91-6.4-5.47-9.43-8.27a4.87,4.87,0,0,1-1.4-3c-.11-22.48-.11-44.84,0-67.32a3.9,3.9,0,0,1,.7-2.56C160,297.67,167.2,290.57,174.66,283.12Z"/><path class="cls-4" d="M141.93,383.86c0,5.7-1.51,7.33-7.34,7.33H89.41c-5.36,0-7.11-1.63-7.11-7.1V304.2c0-5.36,1.63-7.11,7.11-7.11h42.27c2,0,3.85,0,5.71.12,2.45.12,4,1.86,4.43,4.31a23.66,23.66,0,0,1,.11,2.79Z"/><path class="cls-3" d="M157.3,180.05c13.75-3.73,27.26-7.34,41.12-11.07,0,6.18,0,12.23-.12,18.17,0,.47-.93,1-1.51,1.28-5.13,1.75-5.94,3-5.25,8.5a13.75,13.75,0,0,1-8.61,14.8c-5.13,2.09-5.94,3.72-4.55,9.08,6.29,23.06,12.47,46.12,18.75,69.18.24.81.35,1.63.59,2.56H187.58C177.57,255.05,167.44,217.67,157.3,180.05Z"/><path class="cls-3" d="M266.66,255.75a14.33,14.33,0,1,1-14.21,14.32A14.48,14.48,0,0,1,266.66,255.75Z"/><path class="cls-3" d="M198.3,212.66v40.53c-.12,0-.23.11-.35.11-.23-.93-.58-1.86-.82-2.79-2.56-9.44-5-18.75-7.68-28.19-.47-1.51-.12-2.21,1.16-3.14C193.41,217.2,195.74,214.87,198.3,212.66Z"/><ellipse class="cls-5" cx="307.19" cy="153.15" rx="63.59" ry="64.17"/><path class="cls-2" d="M303,229.19c-2.91-.46-5.82-.69-8.62-1.28a73.66,73.66,0,0,1-40.3-21.31,71.33,71.33,0,0,1-20.73-41.93c-3.26-25.38,4.2-47.28,22.6-65.21A72.84,72.84,0,0,1,287.86,81.4c4.31-1.16,8.85-1.74,13.39-2.67V72.9c0-4.07,2.68-6.87,6.29-6.87S314,68.83,314,72.9v5.94c3.72.7,7.45,1.28,11.06,2.1a69,69,0,0,1,25.62,11.53c12.81,9.08,22.25,21,27.49,35.75,7.45,21.2,5.82,41.81-4.55,61.73a6.28,6.28,0,1,1-11.18-5.71,67.65,67.65,0,0,0,6.53-18.17,62.72,62.72,0,0,0-36.57-69.29,60.36,60.36,0,0,0-33.89-4.43,62.56,62.56,0,0,0-51.6,47.87,60.3,60.3,0,0,0,4.08,39.59,62.53,62.53,0,0,0,64.29,36.11,62,62,0,0,0,28.88-11.18c2.33-1.63,4.66-2.21,7.34-.93a6.27,6.27,0,0,1,.81,10.71A73.13,73.13,0,0,1,312.78,229a2.88,2.88,0,0,0-.93.23Z"/><path class="cls-2" d="M307.66,166.77A12.94,12.94,0,0,1,295,153.84a12.8,12.8,0,0,1,13.16-12.57,3.24,3.24,0,0,0,2.8-1.28c6.17-7.69,12.46-15.49,18.75-23.18a6.36,6.36,0,0,1,11.41,2.91,7.14,7.14,0,0,1-1.86,5.59c-6.17,7.69-12.46,15.37-18.64,22.94a2.33,2.33,0,0,0-.46,2.57A12.87,12.87,0,0,1,307.66,166.77Z"/><path class="cls-2" d="M266.78,76.75a6.19,6.19,0,0,1-2.33,4.89C258.74,86.41,253,91.3,247.21,96a6.34,6.34,0,0,1-9.08-.81,6.27,6.27,0,0,1,1.05-9c5.59-4.78,11.29-9.43,17-14.21a6.19,6.19,0,0,1,7-.93A6.29,6.29,0,0,1,266.78,76.75Z"/><path class="cls-2" d="M348.77,76.75A5.89,5.89,0,0,1,352.38,71a6.19,6.19,0,0,1,7,.93c4,3.26,7.8,6.52,11.76,9.78,1.86,1.52,3.73,3,5.47,4.66a6.25,6.25,0,0,1,1.87,6.76,6.13,6.13,0,0,1-5.36,4.31,5.78,5.78,0,0,1-4.54-1.4c-5.83-4.89-11.65-9.67-17.47-14.56A5.49,5.49,0,0,1,348.77,76.75Z"/></svg>