<svg id="Layer_1" data-name="Layer 1" xmlns="http://www.w3.org/2000/svg" xmlns:xlink="http://www.w3.org/1999/xlink" viewBox="0 0 473.6 478.68"><defs><style>.cls-1{fill:#cecccc;}.cls-2{fill:#263b5c;}.cls-3{fill:#fff;}.cls-4{fill:#00cf8b;}.cls-5{fill:url(#linear-gradient);}.cls-6{fill:url(#linear-gradient-2);}.cls-7{fill:url(#linear-gradient-3);}.cls-8{fill:url(#linear-gradient-4);}</style><linearGradient id="linear-gradient" x1="122.18" y1="231.08" x2="158.62" y2="231.08" gradientUnits="userSpaceOnUse"><stop offset="0" stop-color="#5a6cef"/><stop offset="1" stop-color="#66f"/></linearGradient><linearGradient id="linear-gradient-2" x1="289.56" y1="231.05" x2="325.96" y2="231.05" xlink:href="#linear-gradient"/><linearGradient id="linear-gradient-3" x1="194.66" y1="287.71" x2="253.82" y2="287.71" xlink:href="#linear-gradient"/><linearGradient id="linear-gradient-4" x1="207.95" y1="103.68" x2="240.23" y2="103.68" xlink:href="#linear-gradient"/></defs><path class="cls-1" d="M341.89,357.11c-84.28,84.47-162,143.53-246.51,59.25S10.76,195.29,95,110.82s221.08-84.63,305.55-.35S426.17,272.64,341.89,357.11Z"/><path class="cls-2" d="M73,311.05c7.23-12.18,18.5-18.3,32.6-18,15,.32,26.36,7.42,33.41,20.92l1.33,2.53a17.07,17.07,0,0,1,13.67-.94c6.87,2.52,10.15,7.78,10.67,14.95.28,3.91,1.63,5.28,5.38,5.68,8.75.92,15.46,6.59,16.16,13.66.88,8.72-3.81,15.26-12.74,18.33-4.11,1.42-18.23.79-18.5.94-24.1,0-46.94.92-57.16-1.26-11.21-2.39-19.59-8.53-25.49-18.45C63.32,334.37,70.22,315.65,73,311.05Zm62.84,46.56v.14h21.13c4.39,0,8.79.06,13.17-.09,3.13-.1,4.85-1.77,5.19-4.56.36-3-1.7-5.23-5.19-6-3.14-.7-6.18-1.82-9.3-2.6a7.21,7.21,0,0,0-3.45-.1c-2.83.72-5.55,2-8.41,2.47a4.83,4.83,0,0,1-5.77-4.52c-.36-3.39,1.17-5.43,4.56-6.09a19.11,19.11,0,0,0,2.4-.42c2.59-.81,3.92-3.14,3.5-6a4.93,4.93,0,0,0-5.08-4.37c-2.7,0-4.73,1.16-5.32,4.05-.17.8-.3,1.61-.49,2.4-.7,2.84-2.71,4.43-5.49,4.21a5,5,0,0,1-5-4.54c-.21-1.31-.28-2.64-.45-3.95-2-15.39-14.92-25.43-30.24-23.5a26.49,26.49,0,0,0-23.4,27.22c.4,14.36,10.94,25.65,25.14,26.2C114.13,357.94,125,357.61,135.79,357.61Z"/><path class="cls-2" d="M275.61,368.45c-8.27-1.21-10.63-3.32-12.23-7.58-4.78-12.72,2.16-23.13,13.51-24.58,5.67-.73,6.11-1.18,6.78-7,1.36-11.85,12.74-18,23.62-13.05,3-4.11,5.56-8.64,9.1-12.13,10.81-10.66,24-13.86,38.33-9.31s23.18,14.74,25.54,29.64c3.36,21.21-9.27,39.45-30.13,43.39C342.49,369.32,286.15,370,275.61,368.45Zm36.48-10.71v-.11c10.82,0,21.64.33,32.44-.08,14.48-.56,25-11.7,25.46-26.18.37-12.72-7.65-23.29-20.32-26.77-11.52-3.18-24.72,2.3-30.08,13.17-2,4.07-2.59,8.88-3.58,13.41-.65,2.94-2.21,4.72-5,4.93s-4.91-1.37-5.62-4.43c-.19-.79-.28-1.61-.48-2.4a5.33,5.33,0,0,0-10.4.73c-.39,3.5,1.36,5.46,5.52,6.18,3.7.64,5.29,2.56,5,6a4.91,4.91,0,0,1-6,4.64c-2.95-.42-5.77-1.7-8.66-2.55a4.84,4.84,0,0,0-2.4-.39c-3.48,1-6.87,2.32-10.38,3.18s-5.6,3.51-4.56,6.91c.93,3.08,3.39,3.74,6.26,3.74Q295.71,357.72,312.09,357.74Z"/><path class="cls-2" d="M288.45,201.33c13.55,1.55,25.1,6.85,34.37,16.66A52.06,52.06,0,0,1,337.5,252.7c.25,6.32-1.15,7.73-7.58,7.73-11.13,0-22.26.1-33.38-.06-2.53,0-3.37.8-4.12,3.16-3.2,10-10.13,15.94-20.38,18.18a9.13,9.13,0,0,0-4.18,2.14q-6.14,5.76-11.94,11.88c-4.72,4.95-10.4,8.06-17.19,8.28-9.69.32-19.4.34-29.08.06-7.26-.21-13.24-3.7-18.32-8.77-3.9-3.9-7.74-7.86-11.73-11.66a7.93,7.93,0,0,0-3.66-1.91c-10.52-2.22-17.47-8.46-20.79-18.57-.74-2.24-1.67-2.78-3.81-2.76-11.13.09-22.26.05-33.39,0-6,0-7.47-1.54-7.28-7.43a53.5,53.5,0,0,1,45.27-51.07c1.2-.19,2.38-.43,3.79-.69q1.54-13.8,3.07-27.62c2.39-21.8,4.88-43.59,7.11-65.41,1-9.45,2.93-18.49,7.82-26.76C189.2,62,212.17,51.57,234,55.93c23,4.59,40.4,22.46,43.35,45.31,2.37,18.41,4.15,36.89,6.19,55.34C285.16,171.39,286.78,186.19,288.45,201.33ZM166.2,260.44a5.2,5.2,0,0,0-.08,1,4.39,4.39,0,0,0,.35.84c3.07,6.07,8.09,9,14.81,9H245.6c7.36,0,14.71.14,22.06-.06,9.28-.24,16.71-8.41,15.76-17.47-2.19-20.8-4.59-41.57-6.9-62.35-2.37-21.29-4.69-42.59-7.12-63.87-1.12-9.72-1.7-19.59-3.85-29.09C260.87,77.75,242.72,65,220.77,66c-19.12.86-36.25,16.26-38.89,35.91-2.86,21.22-5,42.54-7.38,63.83s-4.77,42.57-7.14,63.86c-.73,6.57-1.43,13.14-2.19,20.1h99.16a32.07,32.07,0,0,1,3.67.1,4.85,4.85,0,0,1,4.64,5.1c.07,3.09-1.54,5-4.62,5.38a32.86,32.86,0,0,1-4,.15H166.2Zm-44-10.93h32.16l4.28-36.86C141,213.74,123,232.06,122.18,249.51Zm171.68.05H326c-1-17.08-16.69-34.65-36.4-37C291,224.93,292.43,237.22,293.86,249.56Zm-99.2,32.77c5.33,8.09,12.54,11.47,22,10.63a115,115,0,0,1,17.41,0c8.77.56,14.45-4.13,19.73-10.61Z"/><path class="cls-2" d="M197.1,330.73c0-3.47-.06-6.94,0-10.41s1.89-5.55,5.06-5.66c3.38-.13,5.51,1.67,5.61,5.42q.27,10.71,0,21.43c-.09,3.53-2.25,5.46-5.36,5.44s-5.23-2.13-5.31-5.81C197,337.68,197.1,334.2,197.1,330.73Z"/><path class="cls-2" d="M251.08,331c0,3.37.06,6.73,0,10.1-.07,3.72-2,5.83-5.23,5.9s-5.34-1.86-5.42-5.35c-.18-7.24-.19-14.49,0-21.73.1-3.57,2.21-5.3,5.48-5.22s5.06,2,5.15,5.58S251.08,327.37,251.08,331Z"/><path class="cls-2" d="M229.73,330.21c0,3.36.05,30.73,0,34.1-.07,3.72-2,5.83-5.22,5.9s-5.35-1.86-5.43-5.35c-.18-7.24-.19-38.49,0-45.73.1-3.57,2.21-5.3,5.48-5.22s5.06,2,5.15,5.58S229.72,326.63,229.73,330.21Z"/><path class="cls-3" d="M135.79,357.61c-10.82,0-21.66.33-32.46-.08-14.2-.55-24.74-11.84-25.14-26.2a26.49,26.49,0,0,1,23.4-27.22c15.32-1.93,28.24,8.11,30.24,23.5.17,1.31.24,2.64.45,3.95a5,5,0,0,0,5,4.54c2.78.22,4.79-1.37,5.49-4.21.19-.79.32-1.6.49-2.4.59-2.89,2.62-4,5.32-4.05a4.93,4.93,0,0,1,5.08,4.37c.42,2.88-.91,5.21-3.5,6a19.11,19.11,0,0,1-2.4.42c-3.39.66-4.92,2.7-4.56,6.09a4.83,4.83,0,0,0,5.77,4.52c2.86-.43,5.58-1.75,8.41-2.47a7.21,7.21,0,0,1,3.45.1c3.12.78,6.16,1.9,9.3,2.6,3.49.78,5.55,3,5.19,6-.34,2.79-2.06,4.46-5.19,4.56-4.38.15-8.78.08-13.17.09H135.79Zm-31.4-42.95a15.86,15.86,0,0,0-15.47,15.79c0,3.17,1.91,5.37,4.85,5.64s5.23-1.48,5.85-4.58c1-4.9,1.46-5.39,6-6.29,3.45-.68,5.07-2.71,4.72-5.9S108,314.59,104.39,314.66Z"/><path class="cls-3" d="M312.09,357.74q-16.38,0-32.76,0c-2.87,0-5.33-.66-6.26-3.74-1-3.4.91-6,4.56-6.91s6.9-2.19,10.38-3.18a4.84,4.84,0,0,1,2.4.39c2.89.85,5.71,2.13,8.66,2.55a4.91,4.91,0,0,0,6-4.64c.31-3.48-1.28-5.4-5-6-4.16-.72-5.91-2.68-5.52-6.18a5.33,5.33,0,0,1,10.4-.73c.2.79.29,1.61.48,2.4.71,3.06,2.72,4.64,5.62,4.43s4.32-2,5-4.93c1-4.53,1.57-9.34,3.58-13.41,5.36-10.87,18.56-16.35,30.08-13.17,12.67,3.48,20.69,14,20.32,26.77-.42,14.48-11,25.62-25.46,26.18-10.8.41-21.62.08-32.44.08Zm25.74-10.57V347c1.63,0,3.26.07,4.89,0,9.6-.48,16-6.48,16.5-15.44.19-3.43-1.52-5.68-4.63-6.05s-5.4,1.27-6.05,4.6c-1,5.15-2.06,6-7.36,6-3.16,0-6.33-.11-9.47.12a4.82,4.82,0,0,0-4.76,5c-.13,3,1.25,4.94,4.18,5.43C333.34,347.07,335.6,347,337.83,347.17Z"/><path class="cls-4" d="M166.2,260.44h97.85a32.86,32.86,0,0,0,4-.15c3.08-.36,4.69-2.29,4.62-5.38a4.85,4.85,0,0,0-4.64-5.1,32.07,32.07,0,0,0-3.67-.1H165.17c.76-7,1.46-13.53,2.19-20.1q3.55-31.93,7.14-63.86c2.4-21.29,4.52-42.61,7.38-63.83,2.64-19.65,19.77-35,38.89-35.91,21.95-1,40.1,11.75,44.78,32.41,2.15,9.5,2.73,19.37,3.85,29.09,2.43,21.28,4.75,42.58,7.12,63.87,2.31,20.78,4.71,41.55,6.9,62.35.95,9.06-6.48,17.23-15.76,17.47-7.35.2-14.7.06-22.06.06H181.28c-6.72,0-11.74-2.92-14.81-9a4.39,4.39,0,0,1-.35-.84A5.2,5.2,0,0,1,166.2,260.44Zm56.28-129.93c14.26,1.33,27-9.6,28.45-24.38a27,27,0,1,0-28.45,24.38Z"/><path class="cls-5" d="M122.18,249.51c.77-17.45,18.8-35.77,36.44-36.86l-4.28,36.86Z"/><path class="cls-6" d="M293.86,249.56c-1.43-12.34-2.86-24.63-4.3-37,19.71,2.36,35.38,19.93,36.4,37Z"/><path class="cls-7" d="M194.66,282.33h59.16c-5.28,6.48-11,11.17-19.73,10.61a115,115,0,0,0-17.41,0C207.2,293.8,200,290.42,194.66,282.33Z"/><path class="cls-2" d="M104.39,314.66c3.62-.07,5.65,1.51,6,4.66s-1.27,5.22-4.72,5.9c-4.58.9-5,1.39-6,6.29-.62,3.1-2.87,4.86-5.85,4.58s-4.84-2.47-4.85-5.64A15.86,15.86,0,0,1,104.39,314.66Z"/><path class="cls-2" d="M337.83,347.17c-2.23-.14-4.49-.1-6.69-.46-2.93-.49-4.31-2.46-4.18-5.43a4.82,4.82,0,0,1,4.76-5c3.14-.23,6.31-.1,9.47-.12,5.3,0,6.35-.89,7.36-6,.65-3.33,2.83-5,6.05-4.6s4.82,2.62,4.63,6.05c-.51,9-6.9,15-16.5,15.44-1.63.08-3.26,0-4.89,0Z"/><path class="cls-2" d="M222.48,130.51a26.92,26.92,0,1,1,28.45-24.38C249.51,120.91,236.74,131.84,222.48,130.51Zm17.75-26.94A16.14,16.14,0,1,0,224,119.89,15.88,15.88,0,0,0,240.23,103.57Z"/><path class="cls-8" d="M240.23,103.57a16.14,16.14,0,1,1-16.08-16.09A16,16,0,0,1,240.23,103.57Z"/><rect class="cls-2" x="205.46" y="160.08" width="10.82" height="41.37" rx="5.41" transform="translate(196.4 -96.6) rotate(46.41)"/><rect class="cls-2" x="227.77" y="181.32" width="10.82" height="41.37" rx="5.41" transform="translate(218.71 -106.17) rotate(46.41)"/><rect class="cls-2" x="215.32" y="156.73" width="10.82" height="71.39" rx="5.41" transform="translate(207.91 -100.12) rotate(46.41)"/></svg>