<svg id="Layer_1" data-name="Layer 1" xmlns="http://www.w3.org/2000/svg" xmlns:xlink="http://www.w3.org/1999/xlink" viewBox="0 0 473.6 478.68"><defs><style>.cls-1{fill:#cecccc;}.cls-2{fill:#00cf8b;}.cls-3{fill:#263b5c;}.cls-4{fill:url(#linear-gradient);}.cls-5{fill:url(#linear-gradient-2);}.cls-6{fill:url(#linear-gradient-3);}.cls-7{fill:url(#linear-gradient-4);}.cls-8{fill:url(#linear-gradient-5);}.cls-9{fill:url(#linear-gradient-6);}.cls-10{fill:url(#linear-gradient-7);}</style><linearGradient id="linear-gradient" x1="328.13" y1="303.19" x2="347.34" y2="303.19" gradientUnits="userSpaceOnUse"><stop offset="0" stop-color="#5a6cef"/><stop offset="1" stop-color="#66f"/></linearGradient><linearGradient id="linear-gradient-2" x1="298.43" y1="319.1" x2="317.64" y2="319.1" xlink:href="#linear-gradient"/><linearGradient id="linear-gradient-3" x1="269.61" y1="336.83" x2="288.82" y2="336.83" xlink:href="#linear-gradient"/><linearGradient id="linear-gradient-4" x1="241.37" y1="350.09" x2="260.58" y2="350.09" xlink:href="#linear-gradient"/><linearGradient id="linear-gradient-5" x1="212.02" y1="357.7" x2="231.22" y2="357.7" xlink:href="#linear-gradient"/><linearGradient id="linear-gradient-6" x1="182.66" y1="361.68" x2="201.86" y2="361.68" xlink:href="#linear-gradient"/><linearGradient id="linear-gradient-7" x1="152.24" y1="364.71" x2="171.44" y2="364.71" xlink:href="#linear-gradient"/></defs><path class="cls-1" d="M344.17,360.66c-84.28,84.47-162,143.54-246.5,59.26s-84.62-221.08-.34-305.55S318.4,29.75,402.87,114,428.45,276.2,344.17,360.66Z"/><ellipse class="cls-2" cx="190.25" cy="225.99" rx="28.3" ry="35.73"/><path class="cls-3" d="M35.53,254.75a37.89,37.89,0,0,0,19.18,5.41c10.94,0,17.34-5.78,17.34-14.14,0-7.75-4.43-12.17-15.62-16.48-13.53-4.79-21.89-11.8-21.89-23.48,0-12.91,10.7-22.5,26.81-22.5,8.48,0,14.63,2,18.32,4.05l-3,8.73A33.11,33.11,0,0,0,61,192.41c-11.31,0-15.62,6.76-15.62,12.42,0,7.74,5,11.56,16.48,16C75.86,226.22,83,233,83,245.16,83,258,73.52,269,54,269c-8,0-16.72-2.33-21.15-5.28Z"/><path class="cls-3" d="M140.54,228.93H108.32v29.88h35.9v9H97.62V184.91h44.76v9H108.32v26.19h32.22Z"/><path class="cls-3" d="M228.94,225.48c0,28.53-17.33,43.65-38.48,43.65-21.89,0-37.26-17-37.26-42,0-26.31,16.35-43.52,38.49-43.52C214.31,183.56,228.94,200.89,228.94,225.48Zm-64.3,1.36c0,17.7,9.59,33.57,26.43,33.57s26.56-15.62,26.56-34.43c0-16.48-8.61-33.69-26.43-33.69S164.64,208.64,164.64,226.84Z"/><path class="cls-3" d="M304,154.31c3.79,5.07,7.37,9.75,10.8,14.54a5.37,5.37,0,0,1,.76,3.13c-1,38.9-13.75,73.53-38.73,103.37-25.89,30.94-58.93,50.07-98.64,57.22-9.4,1.7-19.08,2.07-28.66,2.6a11.4,11.4,0,0,1-12.27-11.52c0-6.62,5.18-11.58,12.23-11.66,60.91-.7,114-38.11,134.38-94.67a143.88,143.88,0,0,0,8.48-45.73,4.28,4.28,0,0,1,.49-2.28C296.48,164.37,300.17,159.49,304,154.31Z"/><path class="cls-3" d="M304,154.71l-17.35,23.11c-6.54,8.72-13,17.49-19.64,26.14-5.28,6.9-15,6.52-19.41-.63-2.61-4.27-2.29-9.12,1-13.55q18.57-24.81,37.19-49.6c2.85-3.81,5.67-7.65,8.57-11.43,5.3-6.9,14.08-6.93,19.33,0q23,30.57,45.92,61.22c3.66,4.89,3.39,10.87-.48,15.11a11.37,11.37,0,0,1-14.36,2.18,16.66,16.66,0,0,1-4.31-4.15Q323,180,305.56,156.68C305.13,156.11,304.67,155.56,304,154.71Z"/><rect class="cls-4" x="328.13" y="218.44" width="19.21" height="169.5" rx="8.04"/><rect class="cls-5" x="298.43" y="250.25" width="19.21" height="137.69" rx="8.04"/><rect class="cls-6" x="269.61" y="285.49" width="19.21" height="102.67" rx="8.04"/><rect class="cls-7" x="241.37" y="312.02" width="19.21" height="76.14" rx="8.04"/><rect class="cls-8" x="212.02" y="327.23" width="19.21" height="60.93" rx="8.04"/><rect class="cls-9" x="182.66" y="335.19" width="19.21" height="52.97" rx="8.04"/><rect class="cls-10" x="152.24" y="341.26" width="19.21" height="46.91" rx="8.04"/></svg>