<svg id="Layer_1" data-name="Layer 1" xmlns="http://www.w3.org/2000/svg" xmlns:xlink="http://www.w3.org/1999/xlink" viewBox="0 0 473.6 473.6"><defs><style>.cls-1{fill:#cecccc;}.cls-2{fill:#263b5c;}.cls-3{fill:#00cf8b;}.cls-4{fill:url(#linear-gradient);}.cls-5{fill:#fff;}.cls-6{fill:url(#linear-gradient-2);}.cls-7{fill:url(#linear-gradient-3);}.cls-8{fill:url(#linear-gradient-4);}.cls-9{fill:url(#linear-gradient-5);}.cls-10{fill:url(#linear-gradient-6);}.cls-11{fill:url(#linear-gradient-7);}</style><linearGradient id="linear-gradient" x1="143.51" y1="305.78" x2="193.84" y2="305.78" gradientUnits="userSpaceOnUse"><stop offset="0" stop-color="#5a6cef"/><stop offset="1" stop-color="#66f"/></linearGradient><linearGradient id="linear-gradient-2" x1="143.45" y1="350.42" x2="193.87" y2="350.42" xlink:href="#linear-gradient"/><linearGradient id="linear-gradient-3" x1="143.65" y1="261.36" x2="193.74" y2="261.36" xlink:href="#linear-gradient"/><linearGradient id="linear-gradient-4" x1="143.63" y1="328.07" x2="193.72" y2="328.07" xlink:href="#linear-gradient"/><linearGradient id="linear-gradient-5" x1="143.63" y1="283.61" x2="193.72" y2="283.61" xlink:href="#linear-gradient"/><linearGradient id="linear-gradient-6" x1="143.48" y1="372.54" x2="193.87" y2="372.54" xlink:href="#linear-gradient"/><linearGradient id="linear-gradient-7" x1="144.38" y1="241.14" x2="193.04" y2="241.14" xlink:href="#linear-gradient"/></defs><path class="cls-1" d="M360.87,344.14c-84.28,84.47-162,143.53-246.5,59.25S29.74,182.32,114,97.85,335.1,13.23,419.57,97.5,445.15,259.67,360.87,344.14Z"/><path class="cls-2" d="M71.35,376.91V149.59c2.9-6.22,8.35-9.15,14.49-11,10.66-3.27,21.56-3.61,32.54-2.26,6.82.84,13.46,2.39,19.31,6.27a12.39,12.39,0,0,1,6,11.18c-.14,13.24-.05,26.48-.05,39.72v34.07c12.89-37.82,37.2-66.09,71.8-86.44-13-6-19.32-16.43-22.26-29.24-3.54-15.4-2.51-30.8.5-46.17.69-3.53,3.17-4.74,6.24-5.17,6.33-.9,12.66-2.13,19-2.41,19.34-.85,38.44-.45,52.68,16.16,5.14-7,12.11-11.19,20.26-13.46,17.72-4.94,35.46-3.35,53.15.21,2.84.57,3.91,2.84,4.4,5.46,2.45,13.31,3.51,26.69,1.35,40.14-2.35,14.7-8.25,27.15-22.45,34.1-.11.06-.11.37-.19.69,1.15.73,2.39,1.4,3.5,2.24,9.73,7.44,20.18,14.11,29,22.5,27.35,26,41.72,58.41,44.07,96.08,1,16.35-.79,32.23-8,47.24C386.21,331.17,368.78,345,347,354.08A161.44,161.44,0,0,1,293,366c-20.27,1-40.59,1.53-60.7-2.09-9.14-1.64-18.17-4-27.47-6,0,4.32-.28,8.88.06,13.39.57,7.39-3,12-9.34,14.79a60.42,60.42,0,0,1-9.19,3.16c-3.32.87-6.75,1.34-10.13,2H159.29q-10.22-3.39-20.43-6.77a2.56,2.56,0,0,0-1.5,0c-6.81,2.24-13.61,4.52-20.41,6.79H100c-5.53-1.29-11.15-2.31-16.58-3.94S73.62,382.42,71.35,376.91Zm175.73-233.1c-5.34.44-11-.51-15.25,1.5-30.34,14.33-53.93,36-69.13,66.25-2.16,4.3-3.94,8.79-5.8,13,5.39,0,10.37-.16,15.32,0,8.4.33,16.64,1.57,24.23,5.48,5.57,2.86,8.51,7.1,8.44,13.76-.24,21.27-.09,42.55-.09,63.82v38.68c10.88,2.39,21.65,5.36,32.63,7,21,3.19,42.2,2.93,63.3.7,18.79-2,36.93-6.58,53.57-15.89,22.76-12.74,36.42-31.89,39-58,2.07-21.18-1.5-41.74-9.71-61.4-14.17-33.89-39.33-57.09-71.65-73.22-5.17-2.58-10.64-.82-16.6-1.21,3.62,3.08,6.72,5.47,9.55,8.15,13.19,12.47,21.56,27.31,22.15,45.89.32,10-6.44,17.56-16.09,18.1-8.85.51-16.36-6.43-17.25-16-.15-1.62-.06-3.28-.36-4.86-2-10.41-8.59-17.74-17-23.25-2.35-1.55-7.52-1.52-9.85.06-9.61,6.51-16.89,14.95-17.3,27.49a16.63,16.63,0,1,1-33.26-.39c-.09-14.39,4.84-27.08,13.89-38C234.88,155.41,240.91,150.07,247.08,143.81Zm-4.75-11v.26c3.58,0,7.17.22,10.73-.09a14.16,14.16,0,0,0,6.23-1.88,22.19,22.19,0,0,1,24.82.38,8.72,8.72,0,0,0,4.4,1.52c7.59.16,15.19,0,22.78.12,11.5.11,20.92-5.87,25.21-16.57,5.73-14.31,4.9-29.1,2.59-43.92A3,3,0,0,0,337,70.86c-5.15-.73-10.31-1.51-15.5-1.8-10.23-.57-20.39-.13-30.1,3.68-9.47,3.72-14.37,10.93-14.37,21,0,5.42.06,10.84,0,16.27-.06,3.86-2.3,6.3-5.56,6.32S266,114,266,110.09c-.07-4.66,0-9.33,0-14,0-13.74-5.43-21-18.76-24.78-13.81-3.86-27.73-2.63-41.61-.42a3.27,3.27,0,0,0-1.91,2.38c-.63,6.36-1.29,12.73-1.48,19.11-.26,8.41.82,16.69,4.24,24.48,4,9.15,11,14.76,21,15.87C232.32,133.29,237.35,132.83,242.33,132.83ZM143.63,298.2a49.93,49.93,0,0,1,0,6.39c-.41,3.11,1,4.83,3.8,5.34,7,1.27,14,2.91,21.06,3.36a44.47,44.47,0,0,0,22.2-3.86,5.66,5.66,0,0,0,3-3.3c.47-2.47.14-5.09.14-8A77.33,77.33,0,0,1,143.63,298.2Zm-61.18,0v4.16c0,6.67,0,6.75,6.54,8.62a66.94,66.94,0,0,0,28.67,1.68,74,74,0,0,0,12.43-3.52,4,4,0,0,0,2.32-2.68,67.54,67.54,0,0,0,.11-8.23C115.63,303.7,99.14,303.77,82.45,298.18Zm50.08,45.6c-8.62,1.05-16.84,2.85-25.06,2.83s-16.59-1.85-25-2.9a25.15,25.15,0,0,1,0,4.56c-.63,3.78,1.27,5.43,4.55,6.52a60.4,60.4,0,0,0,25.63,2.81c5.74-.63,11.39-2.25,17-3.77a5,5,0,0,0,2.83-3.33A34.28,34.28,0,0,0,132.53,343.78Zm11.1-.9a33.87,33.87,0,0,1,0,5.46c-.67,3.83,1.37,5.4,4.6,6.46a59.94,59.94,0,0,0,25,2.86c5.76-.57,11.42-2.19,17.07-3.56,2.55-.62,4-2.33,3.55-5.28a42.34,42.34,0,0,1-.05-5.86C164.82,349.66,158.73,346.51,143.63,342.88Zm-11.11-177.8c-24.76,5.7-28.16,5-50.07,0v4.18c0,6.19,0,6.28,5.87,8.11a66,66,0,0,0,29.89,1.83,67.42,67.42,0,0,0,12.06-3.57,4,4,0,0,0,2.15-2.77A64.55,64.55,0,0,0,132.52,165.08Zm117.34-8.45c-3.05,3-6.31,5.88-9.16,9.11-8.28,9.39-13.4,20.16-13.66,32.9-.08,4,1.88,6.4,5.15,6.61s5.61-2.12,5.95-6.22A44.5,44.5,0,0,1,254,167.7c.7-.6,1.34-1.27,1.79-1.69ZM143.65,253.76v4.89c0,5.66,0,5.71,5.37,7.48a63.08,63.08,0,0,0,27,2.38c5-.57,9.87-2.19,14.73-3.61,1.14-.33,2.65-1.66,2.8-2.71a58.92,58.92,0,0,0,.14-8.46A77.92,77.92,0,0,1,143.65,253.76Zm-61.2,22.18v5.27c0,5.22,0,5.42,4.81,6.93a66,66,0,0,0,39.67.14c5.61-1.71,5.61-2,5.6-7.76V276A77.93,77.93,0,0,1,82.45,275.94Zm0,44.5a50.29,50.29,0,0,1,0,6.42c-.39,2.94.87,4.65,3.56,5.2,6.23,1.29,12.46,3,18.77,3.44,8.46.62,17-.19,24.81-3.89a5.55,5.55,0,0,0,2.83-3.36c.45-2.4.13-4.95.13-7.8A77.57,77.57,0,0,1,82.46,320.44ZM287.05,166.13c1.15,1,2.35,1.92,3.45,3a44.06,44.06,0,0,1,14.12,29.15c.21,2.56.58,5,3.13,6.39,3.91,2.09,8.1-.77,8.07-5.59-.09-12.51-4.91-23.2-12.95-32.52-3.07-3.55-6.6-6.69-9.83-9.93C290.87,160,289,163,287.05,166.13ZM82.45,209.24a34.08,34.08,0,0,1,0,5.42c-.7,3.91,1.18,5.62,4.67,6.76a61.88,61.88,0,0,0,26,2.79c5.53-.59,11-2.26,16.37-3.74a4.72,4.72,0,0,0,2.94-2.94c.44-2.57.14-5.26.14-8.26A77.11,77.11,0,0,1,82.45,209.24ZM193.72,320.39a77.3,77.3,0,0,1-50.09.06c0,2,0,3.58,0,5.19,0,5.31,0,5.41,5.05,7a65.9,65.9,0,0,0,38.39.46c6.33-1.77,6.65-2.41,6.65-8.66Zm-61.19,44.49a77.07,77.07,0,0,1-50.08,0v5c0,5.44,0,5.58,5.21,7.25a65.12,65.12,0,0,0,37.81.55c7-1.95,7.1-2.32,7.06-9.64ZM82.45,187a43.75,43.75,0,0,1,0,6.14c-.51,3.23,1,4.72,3.84,5.71A58.65,58.65,0,0,0,112.17,202c5.85-.62,11.63-2.27,17.34-3.8a5,5,0,0,0,2.88-3.3c.46-2.39.14-4.94.14-7.88A76.94,76.94,0,0,1,82.45,187Zm111.26,89a77.93,77.93,0,0,1-50.08,0v5.4c0,5.11,0,5.27,5,6.82a66.71,66.71,0,0,0,38.43.45c6.7-1.87,6.76-2.26,6.7-9.27C193.7,278.41,193.71,277.44,193.71,276Zm-50.08,88.92a40.72,40.72,0,0,1,0,5.69c-.56,3.57,1.06,5.26,4.31,6.35a60.21,60.21,0,0,0,25.92,2.93c5.74-.61,11.39-2.29,17-3.84a5,5,0,0,0,2.83-3.33c.45-2.38.13-4.92.13-7.82A77,77,0,0,1,143.63,364.89ZM82.46,253.75a34.84,34.84,0,0,1,0,5.72c-.65,3.7,1.29,5.23,4.4,6.31a64,64,0,0,0,28.88,2.62c4.77-.58,9.45-2.15,14.07-3.61a4.7,4.7,0,0,0,2.64-3.12c.41-2.49.12-5.09.12-7.92A77.87,77.87,0,0,1,82.46,253.75Zm0-22.27v5.39c0,5.08,0,5.17,4.9,6.83a61.72,61.72,0,0,0,27.6,2.54,91.44,91.44,0,0,0,14.72-3.63,4.7,4.7,0,0,0,2.75-3.07c.42-2.5.12-5.13.12-8.06A77,77,0,0,1,82.45,231.48ZM193,241.14c-10-7.39-39.76-7.32-48.66,0C151.13,248,183.5,248.94,193,241.14Zm-61.21-88.85c-8.74-7.74-42.77-7-48.54.1C92.82,159.57,121.79,159.59,131.83,152.29Zm139.52,8.48a10.88,10.88,0,0,0,11.14-11,11,11,0,0,0-10.78-11.13,11.26,11.26,0,0,0-11.39,11.27A11,11,0,0,0,271.35,160.77Z"/><path class="cls-3" d="M247.08,143.81c-6.17,6.26-12.2,11.6-17.27,17.72-9.05,10.93-14,23.62-13.89,38a16.63,16.63,0,1,0,33.26.39c.41-12.54,7.69-21,17.3-27.49,2.33-1.58,7.5-1.61,9.85-.06,8.4,5.51,15,12.84,17,23.25.3,1.58.21,3.24.36,4.86.89,9.53,8.4,16.47,17.25,16,9.65-.54,16.41-8.14,16.09-18.1-.59-18.58-9-33.42-22.15-45.89-2.83-2.68-5.93-5.07-9.55-8.15,6,.39,11.43-1.37,16.6,1.21,32.32,16.13,57.48,39.33,71.65,73.22,8.21,19.66,11.78,40.22,9.71,61.4-2.56,26.12-16.22,45.27-39,58-16.64,9.31-34.78,13.91-53.57,15.89-21.1,2.23-42.28,2.49-63.3-.7-11-1.66-21.75-4.63-32.63-7V307.64c0-21.27-.15-42.55.09-63.82.07-6.66-2.87-10.9-8.44-13.76-7.59-3.91-15.83-5.15-24.23-5.48-4.95-.2-9.93,0-15.32,0,1.86-4.19,3.64-8.68,5.8-13,15.2-30.25,38.79-51.92,69.13-66.25C236.08,143.3,241.74,144.25,247.08,143.81Z"/><path class="cls-3" d="M242.33,132.83c-5,0-10,.46-14.93-.09-10-1.11-17-6.72-21-15.87-3.42-7.79-4.5-16.07-4.24-24.48.19-6.38.85-12.75,1.48-19.11a3.27,3.27,0,0,1,1.91-2.38c13.88-2.21,27.8-3.44,41.61.42C260.52,75.05,266,82.36,266,96.1c0,4.66-.05,9.33,0,14,0,3.93,2.18,6.28,5.51,6.27S277,113.9,277,110c.08-5.43,0-10.85,0-16.27,0-10.1,4.9-17.31,14.37-21,9.71-3.81,19.87-4.25,30.1-3.68,5.19.29,10.35,1.07,15.5,1.8a3,3,0,0,1,2.07,1.79c2.31,14.82,3.14,29.61-2.59,43.92-4.29,10.7-13.71,16.68-25.21,16.57-7.59-.07-15.19,0-22.78-.12a8.72,8.72,0,0,1-4.4-1.52,22.19,22.19,0,0,0-24.82-.38,14.16,14.16,0,0,1-6.23,1.88c-3.56.31-7.15.09-10.73.09Z"/><path class="cls-4" d="M143.63,298.2a77.33,77.33,0,0,0,50.1,0c0,2.88.33,5.5-.14,8a5.66,5.66,0,0,1-3,3.3,44.47,44.47,0,0,1-22.2,3.86c-7.06-.45-14.06-2.09-21.06-3.36-2.8-.51-4.21-2.23-3.8-5.34A49.93,49.93,0,0,0,143.63,298.2Z"/><path class="cls-5" d="M82.45,298.18c16.69,5.59,33.18,5.52,50.07,0a67.54,67.54,0,0,1-.11,8.23,4,4,0,0,1-2.32,2.68,74,74,0,0,1-12.43,3.52A66.94,66.94,0,0,1,89,311c-6.52-1.87-6.54-1.95-6.54-8.62Z"/><path class="cls-5" d="M132.53,343.78a34.28,34.28,0,0,1-.13,6.72,5,5,0,0,1-2.83,3.33c-5.6,1.52-11.25,3.14-17,3.77A60.4,60.4,0,0,1,87,354.79c-3.28-1.09-5.18-2.74-4.55-6.52a25.15,25.15,0,0,0,0-4.56c8.43,1.05,16.72,2.88,25,2.9S123.91,344.83,132.53,343.78Z"/><path class="cls-6" d="M143.63,342.88c15.1,3.63,21.19,6.78,50.12.08a42.34,42.34,0,0,0,.05,5.86c.41,2.95-1,4.66-3.55,5.28-5.65,1.37-11.31,3-17.07,3.56a59.94,59.94,0,0,1-25-2.86c-3.23-1.06-5.27-2.63-4.6-6.46A33.87,33.87,0,0,0,143.63,342.88Z"/><path class="cls-5" d="M132.52,165.08a64.55,64.55,0,0,1-.1,7.76,4,4,0,0,1-2.15,2.77,67.42,67.42,0,0,1-12.06,3.57,66,66,0,0,1-29.89-1.83c-5.9-1.83-5.87-1.92-5.87-8.11v-4.18C104.36,170,107.76,170.78,132.52,165.08Z"/><path class="cls-5" d="M249.86,156.63l5.92,9.38c-.45.42-1.09,1.09-1.79,1.69A44.5,44.5,0,0,0,238.14,199c-.34,4.1-2.55,6.44-5.95,6.22S227,202.6,227,198.64c.26-12.74,5.38-23.51,13.66-32.9C243.55,162.51,246.81,159.64,249.86,156.63Z"/><path class="cls-7" d="M143.65,253.76a77.92,77.92,0,0,0,50,0,58.92,58.92,0,0,1-.14,8.46c-.15,1.05-1.66,2.38-2.8,2.71-4.86,1.42-9.74,3-14.73,3.61a63.08,63.08,0,0,1-27-2.38c-5.39-1.77-5.37-1.82-5.37-7.48Z"/><path class="cls-5" d="M82.45,275.94a77.93,77.93,0,0,0,50.08.08v4.5c0,5.75,0,6.05-5.6,7.76a66,66,0,0,1-39.67-.14c-4.86-1.51-4.81-1.71-4.81-6.93Z"/><path class="cls-5" d="M82.46,320.44a77.57,77.57,0,0,0,50.05,0c0,2.85.32,5.4-.13,7.8a5.55,5.55,0,0,1-2.83,3.36c-7.86,3.7-16.35,4.51-24.81,3.89C98.43,335,92.2,333.35,86,332.06c-2.69-.55-4-2.26-3.56-5.2A50.29,50.29,0,0,0,82.46,320.44Z"/><path class="cls-5" d="M287.05,166.13c2-3.18,3.82-6.09,6-9.54,3.23,3.24,6.76,6.38,9.83,9.93,8,9.32,12.86,20,12.95,32.52,0,4.82-4.16,7.68-8.07,5.59-2.55-1.37-2.92-3.83-3.13-6.39a44.06,44.06,0,0,0-14.12-29.15C289.4,168.05,288.2,167.11,287.05,166.13Z"/><path class="cls-5" d="M82.45,209.24a77.11,77.11,0,0,0,50.05,0c0,3,.3,5.69-.14,8.26a4.72,4.72,0,0,1-2.94,2.94c-5.4,1.48-10.84,3.15-16.37,3.74a61.88,61.88,0,0,1-26-2.79c-3.49-1.14-5.37-2.85-4.67-6.76A34.08,34.08,0,0,0,82.45,209.24Z"/><path class="cls-8" d="M193.72,320.39v4.07c0,6.25-.32,6.89-6.65,8.66a65.9,65.9,0,0,1-38.39-.46c-5.1-1.61-5.07-1.71-5.05-7,0-1.61,0-3.23,0-5.19A77.3,77.3,0,0,0,193.72,320.39Z"/><path class="cls-5" d="M132.53,364.88v3.18c0,7.32-.06,7.69-7.06,9.64a65.12,65.12,0,0,1-37.81-.55c-5.26-1.67-5.21-1.81-5.21-7.25v-5A77.07,77.07,0,0,0,132.53,364.88Z"/><path class="cls-5" d="M82.45,187a76.94,76.94,0,0,0,50.08,0c0,2.94.32,5.49-.14,7.88a5,5,0,0,1-2.88,3.3c-5.71,1.53-11.49,3.18-17.34,3.8a58.65,58.65,0,0,1-25.93-3.16c-2.8-1-4.35-2.48-3.84-5.71A43.75,43.75,0,0,0,82.45,187Z"/><path class="cls-9" d="M193.71,276c0,1.47,0,2.44,0,3.41.06,7,0,7.4-6.7,9.27a66.71,66.71,0,0,1-38.43-.45c-5-1.55-5-1.71-5-6.82V276A77.93,77.93,0,0,0,193.71,276Z"/><path class="cls-10" d="M143.63,364.89a77,77,0,0,0,50.13,0c0,2.9.32,5.44-.13,7.82A5,5,0,0,1,190.8,376c-5.59,1.55-11.24,3.23-17,3.84a60.21,60.21,0,0,1-25.92-2.93c-3.25-1.09-4.87-2.78-4.31-6.35A40.72,40.72,0,0,0,143.63,364.89Z"/><path class="cls-5" d="M82.46,253.75a77.87,77.87,0,0,0,50.06,0c0,2.83.29,5.43-.12,7.92a4.7,4.7,0,0,1-2.64,3.12c-4.62,1.46-9.3,3-14.07,3.61a64,64,0,0,1-28.88-2.62c-3.11-1.08-5-2.61-4.4-6.31A34.84,34.84,0,0,0,82.46,253.75Z"/><path class="cls-5" d="M82.45,231.48a77,77,0,0,0,50.09,0c0,2.93.3,5.56-.12,8.06a4.7,4.7,0,0,1-2.75,3.07A91.44,91.44,0,0,1,115,246.24a61.72,61.72,0,0,1-27.6-2.54c-4.93-1.66-4.9-1.75-4.9-6.83Z"/><path class="cls-11" d="M193,241.14c-9.54,7.8-41.91,6.88-48.66,0C153.28,233.82,183.07,233.75,193,241.14Z"/><path class="cls-5" d="M131.83,152.29c-10,7.3-39,7.28-48.54.1C89.06,145.31,123.09,144.55,131.83,152.29Z"/><path class="cls-5" d="M271.35,160.77a11,11,0,0,1-11-10.88,11.26,11.26,0,0,1,11.39-11.27,11,11,0,0,1,10.78,11.13A10.88,10.88,0,0,1,271.35,160.77Z"/><path class="cls-2" d="M261.6,205.13v91l-25.4-31.22a7.64,7.64,0,1,0-11.85,9.64l39,47.88a7.62,7.62,0,0,0,11.84,0l39-47.88a7.64,7.64,0,1,0-11.85-9.64l-25.39,31.22v-91a7.64,7.64,0,0,0-15.27,0Z"/></svg>