<svg id="Layer_1" data-name="Layer 1" xmlns="http://www.w3.org/2000/svg" xmlns:xlink="http://www.w3.org/1999/xlink" viewBox="0 0 437.6 437.02"><defs><style>.cls-1{fill:#cecccc;}.cls-2{fill:#263b5c;}.cls-3{fill:#fff;}.cls-4{fill:url(#linear-gradient);}.cls-5{fill:#00cf8b;}.cls-6{fill:url(#linear-gradient-2);}</style><linearGradient id="linear-gradient" x1="287.35" y1="354.64" x2="326.11" y2="354.64" gradientTransform="matrix(1, 0, 0, -1, 0, 460.21)" gradientUnits="userSpaceOnUse"><stop offset="0" stop-color="#5a6cef"/><stop offset="1" stop-color="#66f"/></linearGradient><linearGradient id="linear-gradient-2" x1="107.87" y1="115.87" x2="341.39" y2="115.87" xlink:href="#linear-gradient"/></defs><path class="cls-1" d="M331.49,327.1c-84.28,84.47-162,143.53-246.51,59.25S.36,165.28,84.64,80.81s221.08-84.62,305.55-.35S415.77,242.63,331.49,327.1Z"/><path class="cls-2" d="M348.4,133.9a12.71,12.71,0,0,0-4.1-9.7c-19-18.8-37.8-37.6-56.6-56.6a11.9,11.9,0,0,0-9.4-3.9q-73.35.15-146.7.1c-17.3,0-27.2,9.9-27.2,27.1v263c0,11.3,4.3,19.5,12.2,23.7V90.5c0-10,4.4-14.5,14.3-14.5H275.1v34.3c0,16.7,10.1,26.7,26.9,26.7h34.1V377.6c7.8-4.2,12.2-12.3,12.2-23.4V244.8C348.3,207.8,348.3,170.9,348.4,133.9ZM299,124.7c-6.1-.1-11.3-4.7-11.5-10.6-.4-9.5-.1-19-.1-27.9q19.2,19.2,38.7,38.6C317.3,124.8,308.1,124.9,299,124.7Z"/><path class="cls-3" d="M302,137c-16.8,0-26.8-10-26.9-26.7V76H130.9c-9.9,0-14.3,4.5-14.3,14.5V376.4h79.8l28.3-18,26.9,17.7,84.6.2V137Z"/><path class="cls-4" d="M326.1,124.8c-8.8,0-18,.1-27.1,0-6.1-.1-11.3-4.7-11.5-10.6-.4-9.5-.1-19-.1-27.9C300.2,98.9,313.2,111.8,326.1,124.8Z"/><circle class="cls-5" cx="180.6" cy="206.8" r="12.2"/><path class="cls-2" d="M180.6,222.3a15.6,15.6,0,1,1,15.6-15.6A15.62,15.62,0,0,1,180.6,222.3Zm0-24.3a8.8,8.8,0,1,0,8.8,8.8A8.81,8.81,0,0,0,180.6,198Z"/><polygon class="cls-5" points="158.3 262 187 233.4 202.9 246.4 236.6 211.9 284 262 158.3 262"/><path class="cls-2" d="M284,265.4H158.3a3.25,3.25,0,0,1-3.1-2.1,3.57,3.57,0,0,1,.7-3.7L184.6,231a3.37,3.37,0,0,1,4.5-.2l13.5,11,31.5-32.2a3.1,3.1,0,0,1,2.4-1h0a3.19,3.19,0,0,1,2.4,1.1l47.4,50.1a3.35,3.35,0,0,1,.6,3.7A3.1,3.1,0,0,1,284,265.4Zm-117.5-6.8H276.1l-39.6-41.9-31.2,32a3.38,3.38,0,0,1-4.5.3l-13.5-11Z"/><path class="cls-2" d="M99.8,339.9c1.1-4.5,1.8-9.2,3.4-13.6,11.2-30.9,48.3-43.8,76.1-26.4,14.6,9.1,28.7,19,43,28.6a3.37,3.37,0,0,0,4.5,0q20.25-13.65,40.5-27.1c19.8-13.1,43.3-12.7,62,1.9,15.8,12.4,22.5,29.2,19.4,49.1-3.4,22-18.9,38.3-40.6,43.1-14.6,3.2-28.2.2-40.6-8.1-13.4-9-26.9-17.9-40.3-26.9-2-1.3-3.2-1.2-5.1.1-13.4,9-26.8,18.1-40.3,26.9-17,11.1-35,12.6-53.2,3.5-16.1-8-25.4-21.5-28.3-39.3a23.81,23.81,0,0,0-.5-2.6Zm132.1,14.2c14.1,9.4,27.7,18.6,41.6,27.6a42.53,42.53,0,0,0,32.2,6.2,44.19,44.19,0,0,0-6.2-87.5c-10.4-.5-19.7,2.5-28.2,8.2q-48.9,32.55-97.7,65.1c-7.5,5-15.5,7.6-24.6,6.8-17.1-1.4-30.3-14.2-32.9-32-2.3-15.6,7.8-32.2,23.1-37.9,12-4.5,23.3-2.7,33.9,4.3,11.8,7.8,23.5,15.7,35.3,23.5a3.4,3.4,0,0,0,2.7.5,58.07,58.07,0,0,0,6.1-4,3.19,3.19,0,0,0-.7-.6q-20-13.35-39.9-26.6a42.61,42.61,0,0,0-33.8-6.4c-18.5,4.1-31.3,18-34.4,36.7a43.89,43.89,0,0,0,23.7,46c16,7.7,31.3,6.1,45.9-3.6q48.9-32.55,97.7-65.1c8.1-5.4,16.8-7.9,26.5-6.6,15.3,2.1,28.1,14.3,30.5,29.4,2.6,16-5.1,31.8-19.2,38.7-13,6.4-25.6,5-37.6-2.9-11.6-7.7-23.2-15.5-34.9-23.2-.8-.5-2.1-1-2.7-.6A54.17,54.17,0,0,0,231.9,354.1Zm14.6-9.5c12.5,8.2,24.7,16.8,37.4,24.4,9.8,5.8,20.1,5,29.4-1.6,9.5-6.7,13.5-16.4,11.5-27.9-3.5-20.1-25.5-29.6-43.1-18.5-11.6,7.3-22.9,15.2-34.3,22.8C247.2,343.9,247,344.2,246.5,344.6Zm-43.7,0a7.3,7.3,0,0,0-1-.9c-11.3-7.6-22.7-15.2-34-22.7a26.65,26.65,0,0,0-20.5-4.2c-11.9,2.4-19.7,9.6-22.4,21.4s.9,21.7,10.6,28.9,20.5,7.9,30.8,1.6C178.6,361,190.5,352.7,202.8,344.6Z"/><path class="cls-6" d="M231.9,354.1c2.4-1.6,4.3-3.1,6.4-4.2a3.48,3.48,0,0,1,2.7.6c11.7,7.7,23.2,15.5,34.9,23.2,12,7.9,24.6,9.3,37.6,2.9,14.1-6.9,21.9-22.7,19.2-38.7-2.5-15-15.2-27.3-30.5-29.4-9.7-1.3-18.5,1.2-26.5,6.6-32.5,21.7-65.1,43.5-97.7,65.1-14.6,9.7-30,11.3-45.9,3.6-16.8-8.1-26.7-27.5-23.7-46,3.1-18.7,15.9-32.6,34.4-36.7,12.1-2.7,23.4-.3,33.8,6.4,13.4,8.8,26.6,17.7,39.9,26.6a3.19,3.19,0,0,1,.7.6,58.07,58.07,0,0,1-6.1,4,3.34,3.34,0,0,1-2.7-.5c-11.8-7.8-23.5-15.7-35.3-23.5-10.6-7-21.9-8.8-33.9-4.3-15.3,5.7-25.3,22.2-23.1,37.9,2.6,17.8,15.7,30.6,32.9,32,9,.7,17.1-1.8,24.6-6.8q48.75-32.55,97.7-65.1c8.6-5.7,17.9-8.7,28.2-8.2a44.19,44.19,0,0,1,6.2,87.5,42.1,42.1,0,0,1-32.2-6.2C259.7,372.7,246,363.5,231.9,354.1Z"/><path class="cls-2" d="M212.7,160.9H192.6a4.79,4.79,0,0,1-4.8-3,5.5,5.5,0,0,1,.8-6,5,5,0,0,1,4-1.7h20V130.3c0-4.8,4.5-6.4,7.7-5a4.79,4.79,0,0,1,3,4.7v20.1h19.9a5,5,0,0,1,4.7,2.6,5.69,5.69,0,0,1-.2,5.9,4.84,4.84,0,0,1-4.4,2.2h-20v20.1a4.79,4.79,0,0,1-3,4.8,5.67,5.67,0,0,1-6.1-.8,5.09,5.09,0,0,1-1.7-4V161.7A1.08,1.08,0,0,0,212.7,160.9Z"/></svg>