<svg id="Layer_1" data-name="Layer 1" xmlns="http://www.w3.org/2000/svg" xmlns:xlink="http://www.w3.org/1999/xlink" viewBox="0 0 473.6 472.99"><defs><style>.cls-1{fill:#cecccc;}.cls-2{fill:#263b5c;}.cls-3{fill:#fff;}.cls-4{fill:url(#linear-gradient);}.cls-5{fill:#00cf8b;}</style><linearGradient id="linear-gradient" x1="268.78" y1="1415.11" x2="355.58" y2="1415.11" gradientTransform="matrix(1, 0, 0, -1, 0, 1651.2)" gradientUnits="userSpaceOnUse"><stop offset="0" stop-color="#5a6cef"/><stop offset="1" stop-color="#66f"/></linearGradient></defs><path class="cls-1" d="M346.19,349.29c-84.28,84.47-162,143.54-246.51,59.26S15.06,187.47,99.34,103s221.08-84.62,305.55-.34S430.47,264.82,346.19,349.29Z"/><path class="cls-2" d="M168.6,103.09c39.9-31.9,84.1-36.6,129.8-13.7a114.47,114.47,0,0,1,58,69.3h10.7a131.37,131.37,0,0,0-9.8-24.9c-37.2-72.1-134.7-91.2-196.2-38.3-31.7,27.3-46.3,62.2-45.5,103.7.1,4-1.1,5.4-5,6.1-22.6,4.5-38.8,25.6-37.8,48.5A47.67,47.67,0,0,0,112.2,299a7.39,7.39,0,0,1,5.8,4c2.9,5.2,7.8,7.4,13.7,7.6,1.6.1,3.1,0,5.3,0,0,6.3-.2,12.1,0,17.9.7,19.5,8.1,36.1,22.5,49.2,13.7,12.6,30.1,18.5,48.7,18.1,2.7-.1,4.6.3,6.1,3.2,2.6,4.9,7.3,7.5,12.9,7.6,11.1.2,22.2.4,33.3-.1,9.4-.3,15.6-7.5,15.2-16.7-.4-8.5-7.2-14.8-16.3-14.9-10.3-.1-20.6,0-30.9,0-6.6,0-11.5,2.7-14.9,8.4a4.92,4.92,0,0,1-3.3,2.1c-34.2,2-62.3-24.1-63-58.4-.1-5.4,0-10.7,0-16.1a3.47,3.47,0,0,1,2.2,1.8c4.1,6.8,10.9,9.7,18,7.9s11.8-7.7,11.8-15.7q.15-53.25,0-106.5a15.38,15.38,0,0,0-11.8-15.3c-6.9-1.8-13.9,1.2-17.8,7.6-.5.8-1.1,1.5-1.9,2.7-1.2-29.4,15.3-68,53.8-86.9,36.7-18,80.6-10.6,110.4,18.5a95.73,95.73,0,0,1,21.6,33.4h11.2c-6.7-20-19-37-37.4-50.9-20.7-15.6-44.4-22.4-70.3-20.9-57.5,3.4-101.4,52.2-100.5,106.3H125.9C126.6,156.59,140.1,125.89,168.6,103.09Zm-53.5,185.7c-16.8-.7-32.1-18.5-32-36.7s15.5-36.2,32-36.6Zm113.5,96.7c5.1-.1,10.1,0,15.2,0h14.8c4.1.1,6.5,2.1,6.6,5.4s-2.3,5.5-6.4,5.6c-10.1.1-20.2.1-30.4,0-3.9,0-6.1-2.2-6.1-5.4S224.6,385.59,228.6,385.49ZM126,207a21.93,21.93,0,0,1,.4-3.1h23.3c6.5,0,6.6-.1,8.5-6.4.9-3,3-4.6,6-4.1,3.2.5,4.7,2.7,4.7,6,0,8.8.1,17.6.1,26.4q0,38.85-.1,77.7c0,1.8-.2,4-1.2,5.2s-3.6,2.4-5.1,2a7.24,7.24,0,0,1-4.3-4.1c-2-5.8-2.3-6.2-8.4-6.3-5.9,0-11.8.1-17.6,0-4.5-.1-6.3-2-6.3-6.4Z"/><path class="cls-3" d="M126.4,203.89h23.3c6.5,0,6.6-.1,8.5-6.4.9-3,3-4.6,6-4.1,3.2.5,4.7,2.7,4.7,6,0,8.8.1,17.6.1,26.4q0,38.85-.1,77.7c0,1.8-.2,4-1.2,5.2s-3.6,2.4-5.1,2a7.24,7.24,0,0,1-4.3-4.1c-2-5.8-2.3-6.2-8.3-6.3s-11.8.1-17.6-.1c-4.5-.1-6.3-2-6.3-6.4v-86.9A12,12,0,0,1,126.4,203.89Z"/><path class="cls-3" d="M356.3,158.69H344.7c-6.7-20-19-37-37.4-50.9-20.7-15.6-44.4-22.4-70.3-20.9-57.5,3.4-101.4,52.2-100.5,106.3H125.9c.7-36.6,14.2-67.4,42.7-90.1,39.9-31.9,84.1-36.6,129.8-13.7C328.7,104.59,347.9,131.09,356.3,158.69Z"/><path class="cls-3" d="M115.1,288.79c-16.8-.7-32.1-18.5-32-36.7s15.5-36.1,32-36.6Z"/><path class="cls-3" d="M243.8,385.49h14.8c4.1,0,6.5,2.1,6.6,5.4s-2.3,5.6-6.4,5.6c-10.1.1-20.2.1-30.4,0-3.9,0-6.1-2.2-6.1-5.4s2.4-5.5,6.4-5.6Z"/><path class="cls-4" d="M330.4,167.59l21.2,7.4,2.7,2.5,1.2,2.6v7.1s-2.2,6.5-4.9,17.8c-.9,3.9-5.5,22.6-5.5,22.6l-6,24.6s-12.2,35.5-12.6,36.8-5.5,11.6-5.8,12.3-4.8,3.3-4.8,3.3l-40.7-16.3-6.6-4.2,14.9-49,21.1-41.3,15.2-22.7Z"/><path class="cls-2" d="M386.6,201.89c-6.1,26.7-22.9,53.5-35.1,79.9-4.1,8.9-8.5,17.7-9.4,27.7-.3,3.4-2.6,5-5.7,4.7-3.3-.3-4.8-2.5-4.4-5.5.4-4,.6-8.2,2.2-11.8,11.4-25.3,23.4-50.4,34.7-75.8,3.2-7.2,5.1-15,6.9-22.8a16.81,16.81,0,0,0-10.1-19c-.9,5-1.7,9.9-2.6,14.9-.5,2.7-.9,5.5-1.4,8.2-.7,3.8-2.9,5.5-6.2,4.9-3-.5-4.7-3.2-4.1-6.9.9-5.3,1.9-10.7,2.8-16,.8-4.8-.7-7.8-5.2-9.7-4.3-1.9-8.7-3.7-13.1-5.3-5.4-2-8.6-1.2-11.8,4-7.7,12.7-15.7,25.3-22.6,38.5a423.66,423.66,0,0,0-28.7,71.5c14.2,5.7,28.4,11.3,43.1,17.2,4.7-10.7,9.7-21,13.7-31.6,5.7-14.9,10.6-30,15.9-45,.3-.9.5-1.8.8-2.6,1.3-3.3,3.6-4.6,6.4-3.7,3.1,1,4.4,3.3,3.4,6.8-10.2,35.4-23.6,69.5-42.3,101.2-7.5,12.8-15.5,25.4-26.1,36.1-5.5,5.5-13.8,13.7-23,13.3a2.2,2.2,0,0,1-.8-.1c-6.7-2.1-10-7.1-11.8-13.5-2.9-10.4.3-38.4,2.3-46.9,3.4-15,6.9-30.1,11.8-44.7,10.1-29.8,22-59,38.9-85.8,5.1-8.1,8.8-17.3,16.9-23.4,1.5-1.2,2.4-3.4,3.3-5.2a78.45,78.45,0,0,0,3.2-8c2.3-6.8,6.3-11.7,13.8-12.9h1.4c6.1,2.3,12.4,4.3,18.4,6.9,8.2,3.4,11,10.3,8.1,18.7-.9,2.6-1.9,5.1-2.8,7.8a27.93,27.93,0,0,0,3,1.5A28.37,28.37,0,0,1,386.6,201.89Zm-116.9,91.4c-1.7,6.8-3.4,13-4.7,19.3-3.5,15.6-5.4,31.3-2.4,47.3.9,5,3.6,6.4,7.7,3.5a75.85,75.85,0,0,0,11.8-10.1c11.6-12.3,19.9-26.8,27.8-41.5a21.78,21.78,0,0,0,.6-2.2C297,304.19,283.5,298.79,269.7,293.29Zm65.6-135.2c7.3,2.9,14.2,5.6,21.3,8.5,1.4-3.5,2.6-6.7,3.9-9.9,1.2-2.8.2-4.7-2.5-5.8-4.4-1.7-8.8-3.4-13.1-5.2-2.7-1.1-4.4-.1-5.5,2.5C338.1,151.29,336.8,154.49,335.3,158.09Z"/><path class="cls-5" d="M269.7,293.29c13.8,5.5,27.2,10.9,40.8,16.3a6.39,6.39,0,0,1-.6,2.2c-7.9,14.7-16.3,29.2-27.8,41.5a88.44,88.44,0,0,1-11.8,10.1c-4.1,3-6.8,1.6-7.7-3.5-3-16-1-31.7,2.4-47.3C266.4,306.29,268,300.09,269.7,293.29Z"/><path class="cls-3" d="M335.3,158.09c1.5-3.6,2.8-6.8,4.1-9.9,1-2.5,2.7-3.6,5.5-2.5,4.4,1.8,8.8,3.5,13.1,5.2,2.7,1.1,3.7,2.9,2.5,5.8-1.3,3.2-2.5,6.4-3.9,9.9C349.5,163.69,342.6,161,335.3,158.09Z"/></svg>