<svg id="Layer_1" data-name="Layer 1" xmlns="http://www.w3.org/2000/svg" xmlns:xlink="http://www.w3.org/1999/xlink" viewBox="0 0 474.63 473.35"><defs><style>.cls-1{fill:#cecccc;}.cls-2{fill:#263b5c;}.cls-3{fill:#fff;}.cls-4{fill:url(#linear-gradient);}.cls-5{fill:url(#linear-gradient-2);}.cls-6{fill:#00cf8b;}</style><linearGradient id="linear-gradient" x1="-3965.29" y1="240.13" x2="-3929.97" y2="240.13" gradientTransform="matrix(-1, 0, 0, 1, -3766.4, 93.65)" gradientUnits="userSpaceOnUse"><stop offset="0" stop-color="#5a6cef"/><stop offset="1" stop-color="#66f"/></linearGradient><linearGradient id="linear-gradient-2" x1="278.41" y1="365.39" x2="313.73" y2="365.39" gradientTransform="matrix(1, 0, 0, -1, 0, 477.21)" xlink:href="#linear-gradient"/></defs><path class="cls-1" d="M343.91,360c-84.28,84.47-162,143.53-246.5,59.25s-84.62-221.07-.34-305.54,221.07-84.62,305.54-.35S428.19,275.53,343.91,360Z"/><path class="cls-2" d="M143.33,206.8V107.1c0-15.2,9.2-24.4,24.5-24.4h173.3c15.5,0,24.5,9.1,24.5,24.6V347c0,15.7-9,24.7-24.8,24.7q-66.9,0-133.7.1a11.18,11.18,0,0,1-8.6-3.5q-25.65-25.95-51.6-51.6a11.43,11.43,0,0,1-3.7-8.8Q143.38,257.35,143.33,206.8ZM210,360.6h131.4c9,0,13.1-4.1,13.1-13.2V107c0-9.1-4-13.2-13.1-13.2h-174c-8.8,0-13,4.1-13,12.9V305h31.1c15.3,0,24.5,9.1,24.5,24.3Zm-46.5-44.4c11.8,11.8,23.6,23.5,35.2,35.2,0-8.2.2-16.8-.1-25.5-.2-5.4-4.9-9.6-10.5-9.7C179.93,316.1,171.63,316.2,163.53,316.2Z"/><path class="cls-3" d="M210,360.6V329.4c0-15.2-9.2-24.3-24.5-24.3h-31.1V106.8c0-8.8,4.1-12.9,13-12.9h174c9,0,13.1,4.1,13.1,13.2V347.5c0,9.1-4,13.2-13.1,13.2H214C212.83,360.6,211.63,360.6,210,360.6Z"/><path class="cls-4" d="M163.53,316.2c8.1,0,16.4-.1,24.7,0,5.5.1,10.3,4.3,10.5,9.7.3,8.6.1,17.3.1,25.5C187.13,339.7,175.33,327.9,163.53,316.2Z"/><path class="cls-2" d="M334,238.8v99.7c0,15.2-9.2,24.4-24.5,24.4H136.23c-15.5,0-24.5-9.1-24.5-24.6V98.6c0-15.7,9-24.7,24.8-24.7q66.9,0,133.7-.1a11.18,11.18,0,0,1,8.6,3.5q25.65,26,51.6,51.6a11.43,11.43,0,0,1,3.7,8.8C333.93,171.4,334,205.1,334,238.8ZM267.33,84.9H135.93c-9,0-13.1,4.1-13.1,13.2V338.5c0,9.1,4,13.2,13.1,13.2h174c8.9,0,13-4.1,13-12.9V140.5h-31.1c-15.3,0-24.5-9.1-24.5-24.3Zm46.4,44.5c-11.8-11.8-23.6-23.5-35.2-35.2,0,8.2-.2,16.8.1,25.5.2,5.4,4.9,9.6,10.5,9.7C297.33,129.5,305.73,129.4,313.73,129.4Z"/><path class="cls-3" d="M267.33,84.9v31.2c0,15.2,9.2,24.3,24.5,24.3h31.1V338.7c0,8.8-4.1,12.9-13,12.9h-174c-9,0-13.1-4.1-13.1-13.2V98c0-9.1,4-13.2,13.1-13.2h127.4C264.53,84.9,265.63,84.9,267.33,84.9Z"/><path class="cls-5" d="M313.73,129.4c-8.1,0-16.4.1-24.7,0-5.5-.1-10.3-4.3-10.5-9.7-.3-8.6-.1-17.3-.1-25.5C290.13,105.8,301.93,117.6,313.73,129.4Z"/><circle class="cls-3" cx="193.33" cy="185.8" r="11.1"/><path class="cls-2" d="M193.33,199.9a14.2,14.2,0,1,1,14.2-14.2A14.25,14.25,0,0,1,193.33,199.9Zm0-22.2a8,8,0,1,0,8,8A8,8,0,0,0,193.33,177.7Z"/><polygon class="cls-3" points="173.03 236.1 199.13 210.1 213.63 221.8 244.33 190.5 287.53 236.1 173.03 236.1"/><path class="cls-2" d="M287.53,239.2H173a3.09,3.09,0,0,1-2.1-5.3l26.1-26a3.07,3.07,0,0,1,4.1-.2l12.3,10,28.7-29.4a3.1,3.1,0,0,1,2.2-.9h0a3.21,3.21,0,0,1,2.2,1l43.2,45.7a3,3,0,0,1-2.2,5.1ZM180.43,233h99.9l-36.1-38.2-28.4,29.1a3.07,3.07,0,0,1-4.1.2l-12.3-10Z"/><path class="cls-2" d="M390.63,290.2a11.12,11.12,0,0,0-1.9-5.8c-7-10-14.1-20-21.3-29.9a10.69,10.69,0,0,1-2.1-6.7l.3,35.3v-14c3.6,5,6.7,9.3,10,14H355v.1h-9.7v-.1h-10.5v.1h-20.2v.1h-18.4c-4.9,0-6.3,1.3-6.8,6.2a15.19,15.19,0,0,1-14.9,14c-23.7.1-47.5.1-71.2,0a15.11,15.11,0,0,1-15.1-14.2c-.4-4.6-1.9-6-6.6-6h-59v-.1l-10.6-.1H102c3.4-4.8,6.5-9.1,10-14V250a9.92,9.92,0,0,1-1.6,3.8c-7.1,10.2-14.5,20.2-21.6,30.4a10.83,10.83,0,0,0-1.9,5.8c-.1,34.3-.1,68.7-.1,103,0,4.9,1.7,6.6,6.6,6.6h290.7c5,0,6.7-1.7,6.7-6.6C390.73,358.9,390.73,324.6,390.63,290.2Zm-10.3,99.3H96.93V293.8h81.4c.2.7.5,1.6.8,2.4a25.09,25.09,0,0,0,23.8,17.6c23.8.1,47.7.1,71.5,0,11.8-.1,20.2-7,24.7-20.1h81.2Z"/><path class="cls-6" d="M96.93,389.5V293.8h81.4c.2.7.5,1.6.8,2.4a25.09,25.09,0,0,0,23.8,17.6c23.9.1,47.7.1,71.6,0,11.8-.1,20.2-7,24.7-20.1h81.2v95.7Q238.83,389.55,96.93,389.5Zm141.7-60.4a20.25,20.25,0,1,0,20.3,20.3A20.32,20.32,0,0,0,238.63,329.1Z"/><path class="cls-3" d="M101.73,283.4c3.4-4.8,6.5-9.1,10-14v14Z"/><path class="cls-3" d="M365.63,269.3c3.6,5,6.7,9.3,10,14h-10Z"/><path class="cls-2" d="M238.63,329.1a20.2,20.2,0,1,1-20.1,20.3A20.08,20.08,0,0,1,238.63,329.1Zm.2,30.3a10.1,10.1,0,1,0-10.3-9.9A10.12,10.12,0,0,0,238.83,359.4Z"/><path class="cls-3" d="M238.83,359.4a10.1,10.1,0,1,1,10.1-10.1A10.34,10.34,0,0,1,238.83,359.4Z"/></svg>