<svg id="Layer_1" data-name="Layer 1" xmlns="http://www.w3.org/2000/svg" xmlns:xlink="http://www.w3.org/1999/xlink" viewBox="0 0 473.6 472.23"><defs><style>.cls-1{fill:#cecccc;}.cls-2{fill:#263b5c;}.cls-3{fill:#fff;}.cls-4{fill:url(#linear-gradient);}.cls-5{fill:#00cf8b;}.cls-6{fill:url(#linear-gradient-2);}</style><linearGradient id="linear-gradient" x1="305.79" y1="1546.59" x2="345.2" y2="1546.59" gradientTransform="matrix(1, 0, 0, -1, 0, 1666.81)" gradientUnits="userSpaceOnUse"><stop offset="0" stop-color="#5a6cef"/><stop offset="1" stop-color="#66f"/></linearGradient><linearGradient id="linear-gradient-2" x1="209.1" y1="1527.69" x2="276.7" y2="1527.69" xlink:href="#linear-gradient"/></defs><path class="cls-1" d="M355.89,346.1c-84.28,84.47-162,143.53-246.5,59.25S24.77,184.28,109,99.81s221.08-84.62,305.55-.35S440.17,261.63,355.89,346.1Z"/><path class="cls-2" d="M367.8,261.9V373.1c0,17-10.2,27.2-27.3,27.2H147.2c-17.3,0-27.4-10.1-27.4-27.5V105.4c0-17.6,10-27.6,27.6-27.6q74.55,0,149.2-.1a12.2,12.2,0,0,1,9.5,4q28.65,29,57.5,57.5a12.52,12.52,0,0,1,4.2,9.8ZM293.4,90.3H146.8c-10.1,0-14.6,4.6-14.6,14.7V373.1c0,10.2,4.5,14.7,14.6,14.7H340.9c9.9,0,14.5-4.6,14.5-14.4V152.2H320.7c-17.1,0-27.3-10.2-27.3-27.1Zm51.8,49.5c-13.2-13.1-26.3-26.3-39.3-39.2,0,9.1-.3,18.8.1,28.4.2,6,5.5,10.7,11.7,10.8C327,140,336.2,139.8,345.2,139.8Z"/><path class="cls-3" d="M293.4,90.3v34.9c0,17,10.2,27.1,27.3,27.1h34.7V373.5c0,9.8-4.6,14.4-14.5,14.4H146.8c-10.1,0-14.6-4.6-14.6-14.7V105.1c0-10.2,4.5-14.7,14.6-14.7H289C290.3,90.3,291.6,90.3,293.4,90.3Z"/><path class="cls-4" d="M345.2,139.8c-9,0-18.3.1-27.5,0-6.2-.1-11.4-4.8-11.7-10.8-.4-9.6-.1-19.3-.1-28.4C318.9,113.6,332.1,126.7,345.2,139.8Z"/><path class="cls-2" d="M274.3,127.9c-14.2-15.9-32.2-22.1-53.5-19.9a54,54,0,0,0-10.4,2.7h-.1c-.2.1-.3.1-.5.2-23.4,8.6-36.9,25.6-39.9,50.2-3.4,27.3,13.5,53.4,39.6,62.4l11.3,3.1c36.2,5.7,68.1-23.3,68.3-58.9A57.89,57.89,0,0,0,274.3,127.9Zm2.4,20.1c-7.5,2.4-15,4.7-22.6,7.1s-14.9,4.7-22.7,7.1c-7.4-13.9-14.9-27.8-22.3-41.8C233.6,109.2,265.5,120.4,276.7,148Zm-53.8,70.2a51.38,51.38,0,0,1-43.6-39.9c-4.6-20.5,4.6-42.9,22.3-53.9,2.4,4.5,4.8,8.9,7.1,13.3,5.3,10,10.6,20,16.1,29.9a10.86,10.86,0,0,0,4.3,4.2q20.55,10.5,41.3,20.8c.8.4,1.6.8,2.4,1.3C264.1,209.5,244.6,220.8,222.9,218.2Zm17.8-49.9c13.1-4.1,25.7-8,38.6-12.1a50.87,50.87,0,0,1-2.4,30.1C264.9,180.3,253,174.4,240.7,168.3Z"/><path class="cls-5" d="M201.6,124.4c2.4,4.5,4.8,8.9,7.1,13.3,5.3,10,10.6,20,16.1,30a10.86,10.86,0,0,0,4.3,4.2q20.55,10.5,41.3,20.7c.8.4,1.6.8,2.4,1.3-8.7,15.6-28.3,26.9-49.9,24.3a51.38,51.38,0,0,1-43.6-39.9C174.7,157.8,183.8,135.4,201.6,124.4Z"/><path class="cls-6" d="M209.1,120.4c24.5-11.3,56.4-.1,67.6,27.6-7.5,2.4-15,4.7-22.5,7.1s-14.9,4.7-22.7,7.1C224,148.3,216.6,134.4,209.1,120.4Z"/><path class="cls-3" d="M276.9,186.3l-36.2-18.1c13.1-4.1,25.7-8,38.6-12.1A51.13,51.13,0,0,1,276.9,186.3Z"/><path class="cls-5" d="M182.8,371.3c-1.8-.9-1.5-2.7-1.6-4.3-1.8-.2-4.1.5-4.3-2.3-.1-1.4.8-1.9,4.3-2.3V342.6h-2c-1.4-.1-2.4-1-2.3-2.2a2.16,2.16,0,0,1,2.3-2.1h2V318.4h-2.1a2.27,2.27,0,0,1-2.2-2.1,2.25,2.25,0,0,1,2-2.2,17.63,17.63,0,0,1,2.3,0V294.3c-1.8-.2-4.4.5-4.2-2.4.1-2.5,2.5-1.9,4.2-2.1V270h-2a2.24,2.24,0,0,1-2.3-2.2,2.22,2.22,0,0,1,2.2-2.2,13.33,13.33,0,0,1,2,0V243.5H179a2.22,2.22,0,0,1-2.2-2.2,2.14,2.14,0,0,1,2.2-2.1,32.3,32.3,0,0,1,4.4,0,2.22,2.22,0,0,1,2.2,2.2v98.8a.35.35,0,0,1,.2.1c7.1-12.8,14.1-25.7,21.2-38.6L231.3,326c.4-.6.7-.9.9-1.3,7.2-11.2,14.5-22.4,21.8-33.5a3.81,3.81,0,0,1,1.9-1.4q10.5-3,21-5.7a1.73,1.73,0,0,0,1.5-1.8c.6-7,1.3-14,1.9-21.1a2.56,2.56,0,0,1,1-1.9l18.3-14.7a11,11,0,0,0,1.2-1.1h-9.5v-4.4h17.5v17.6h-4.4V246.4c-.6.5-1.1.8-1.5,1.2-5.8,4.7-11.7,9.3-17.5,14.1a2.75,2.75,0,0,0-1,1.9c-.7,7.1-1.3,14.1-1.9,21.2a3.18,3.18,0,0,1-.2,1.4c-.2.5-.4,1-.6,1.4a3.46,3.46,0,0,1,.7,1.2c.1,1.1,0,2.1,0,3.3H278v-3.5a4.91,4.91,0,0,1-1.1.1l-18.6,5.1c-1.4.4-1.7,1.6-2.5,2.7.8,0,1.5.1,2.3.1v4.3h-4.2a9.68,9.68,0,0,0-.3-1.1c-6.9,10.7-13.7,21.2-20.4,31.6,1.5,1.4.4,3.1.8,4.7h-4.5c.4-1.5-.8-3.2,1.1-4.8-.3-.2-.7-.3-.9-.6-6.7-6.7-13.5-13.4-20.2-20.2-1.2-1.2-1.8-1.2-2.6.3a31.82,31.82,0,0,0-1.6,3.2h0a14.63,14.63,0,0,0-.9,1.3c-6.2,11.2-12.4,22.4-18.5,33.7a4.65,4.65,0,0,0-.6,2.3c-.1,3.7,0,7.5,0,11.3h19.8v-4.2h4.4v4.2h19.9v-4.2h4.4v4.2h19.8v-4.2H258v4.2h19.8v-4.2h4.4v4.3h22v-4.3h4.4v13.2h-2.8c-1.9-.9-1.5-2.7-1.6-4.3h-22c0,1.7.2,3.3-1.5,4.3h-1.3c-2-.8-1.6-2.7-1.7-4.3H257.9c0,1.7.2,3.3-1.5,4.3h-1.3c-2-.8-1.5-2.7-1.7-4.3H233.6c0,1.7.2,3.4-1.6,4.3h-1.3c-2-.9-1.5-2.7-1.6-4.3H209.3c0,1.7.3,3.4-1.6,4.3h-1.3c-1.9-.9-1.5-2.8-1.6-4.3H185c0,1.7.3,3.4-1.6,4.3C183.6,371.3,183.2,371.3,182.8,371.3Z"/><path class="cls-2" d="M309,274.4h-4.3v-4.5c1.4-.1,2.9-.1,4.3-.2Z"/><path class="cls-2" d="M309,300.8h-4.3v-4.4H309Z"/><path class="cls-2" d="M309,309.5h-4.3v-4.4H309Z"/><path class="cls-2" d="M309,318.3h-4.3v-4.4H309Z"/><path class="cls-2" d="M309,327.1h-4.3v-4.4H309Z"/><path class="cls-2" d="M309,344.9h-4.3v-4.4H309Z"/><path class="cls-2" d="M309,353.7h-4.3v-4.4H309Z"/><path class="cls-2" d="M309,335.9h-4.3v-4.4H309Z"/><path class="cls-2" d="M309,265.4h-4.3V261H309Z"/><path class="cls-2" d="M309,283.2h-4.3v-4.4H309Z"/><path class="cls-2" d="M309,292h-4.3v-4.4H309Z"/><path class="cls-2" d="M282.5,296.5v4.2h-4.3v-4.2Z"/><path class="cls-2" d="M254.1,305.2h4.2v4.2h-4.2Z"/><path class="cls-2" d="M282.5,309.5h-4.3v-4.2h4.3Z"/><path class="cls-2" d="M205.6,313.9h4.2v4.4h-4.2v-4.4Z"/><path class="cls-2" d="M254,318.2V314h4.3v4.2Z"/><path class="cls-2" d="M278.2,318.2V314h4.3v4.2Z"/><path class="cls-2" d="M205.6,322.8h4.2V327h-4.2Z"/><path class="cls-2" d="M205.5,331.6h4.2v4.3h-4.2Z"/><path class="cls-2" d="M209.8,349.3v4.2h-4.2v-4.2Z"/><path class="cls-2" d="M205.5,344.7v-4.2h4.2v4.2Z"/><path class="cls-2" d="M234.1,340.5v4.2h-4.3v-4.2Z"/><path class="cls-2" d="M254.1,322.8h4.2v4.3h-4.2Z"/><path class="cls-2" d="M229.8,349.3H234v4.3h-4.2Z"/><path class="cls-2" d="M254.1,349.3h4.2v4.2h-4.2Z"/><path class="cls-2" d="M282.6,340.5v3.6c0,.2-.4.6-.7.7-1.2.1-2.4,0-3.6,0v-4.3Z"/><path class="cls-2" d="M254,335.9v-4.2h4.3v4.2Z"/><path class="cls-2" d="M278.3,327.1v-4.3h4.2v4.3Z"/><path class="cls-2" d="M278.3,349.3h4.2v4.3h-4.2Z"/><path class="cls-2" d="M254,344.7v-4.2h4.3v4.2Z"/><path class="cls-2" d="M282.6,335.9h-4.3v-4.3h3.6c.2,0,.7.4.7.7Z"/><path class="cls-2" d="M190.1,250.2h35.1v4.2H190.1Z"/><path class="cls-2" d="M225.2,241.3v4.2H190.1v-4.2Z"/><path class="cls-2" d="M216.4,259v4.2H190.1V259Z"/><path class="cls-2" d="M216.4,267.8V272H190.1v-4.2Z"/></svg>