<svg width="337" height="99" viewBox="0 0 337 99" fill="none" xmlns="http://www.w3.org/2000/svg">
<path d="M84.1638 41C82.9132 41 81.923 40.0228 82.0047 38.8693L82.0176 38.6871C82.266 35.1809 83.3442 31.7679 85.1762 28.6891L85.5647 28.0362C85.945 27.3971 86.6715 27 87.4606 27L97 27L97 41L84.1638 41Z" fill="black"/>
<path d="M151.081 50C151.081 53.0204 150.486 56.0112 149.33 58.8017C148.175 61.5922 146.48 64.1277 144.345 66.2635C142.209 68.3992 139.673 70.0934 136.883 71.2492C134.092 72.4051 131.102 73 128.081 73C125.061 73 122.07 72.4051 119.279 71.2492C116.489 70.0934 113.953 68.3992 111.818 66.2635C109.682 64.1277 107.988 61.5922 106.832 58.8017C105.676 56.0112 105.081 53.0204 105.081 50L119.111 50C119.111 51.178 119.343 52.3444 119.794 53.4327C120.245 54.521 120.905 55.5098 121.738 56.3427C122.571 57.1757 123.56 57.8364 124.649 58.2872C125.737 58.738 126.903 58.97 128.081 58.97C129.259 58.97 130.426 58.738 131.514 58.2872C132.602 57.8364 133.591 57.1757 134.424 56.3427C135.257 55.5098 135.918 54.521 136.368 53.4327C136.819 52.3444 137.051 51.178 137.051 50H151.081Z" fill="black"/>
<path d="M191.081 27C194.102 27 197.092 27.5949 199.883 28.7508C202.673 29.9066 205.209 31.6008 207.345 33.7365C209.48 35.8723 211.175 38.4078 212.33 41.1983C213.486 43.9888 214.081 46.9796 214.081 50C214.081 53.0204 213.486 56.0112 212.33 58.8017C211.175 61.5922 209.48 64.1277 207.345 66.2635C205.209 68.3992 202.673 70.0934 199.883 71.2492C197.092 72.4051 194.102 73 191.081 73L191.081 58.97C192.259 58.97 193.426 58.738 194.514 58.2872C195.602 57.8364 196.591 57.1757 197.424 56.3427C198.257 55.5098 198.918 54.521 199.368 53.4327C199.819 52.3444 200.051 51.178 200.051 50C200.051 48.822 199.819 47.6556 199.368 46.5673C198.918 45.479 198.257 44.4902 197.424 43.6573C196.591 42.8243 195.602 42.1636 194.514 41.7128C193.426 41.262 192.259 41.03 191.081 41.03L191.081 27Z" fill="black"/>
<path d="M96.0812 27C99.1016 27 102.092 27.5949 104.883 28.7508C107.673 29.9066 110.209 31.6008 112.345 33.7365C114.48 35.8723 116.175 38.4078 117.33 41.1983C118.486 43.9888 119.081 46.9796 119.081 50C119.081 53.0204 118.486 56.0112 117.33 58.8017C116.175 61.5922 114.48 64.1277 112.345 66.2635C110.209 68.3992 107.673 70.0934 104.883 71.2492C102.092 72.4051 99.1016 73 96.0812 73L96.0812 58.97C97.2591 58.97 98.4256 58.738 99.5138 58.2872C100.602 57.8364 101.591 57.1757 102.424 56.3427C103.257 55.5098 103.918 54.521 104.368 53.4327C104.819 52.3444 105.051 51.178 105.051 50C105.051 48.822 104.819 47.6556 104.368 46.5673C103.918 45.479 103.257 44.4902 102.424 43.6573C101.591 42.8243 100.602 42.1636 99.5138 41.7128C98.4256 41.262 97.2591 41.03 96.0812 41.03L96.0812 27Z" fill="black"/>
<path d="M137.081 50C137.081 53.0204 137.676 56.0112 138.832 58.8017C139.988 61.5922 141.682 64.1277 143.818 66.2635C145.953 68.3992 148.489 70.0934 151.279 71.2492C154.07 72.4051 157.061 73 160.081 73L160.081 58.97C158.903 58.97 157.737 58.738 156.649 58.2872C155.56 57.8364 154.571 57.1757 153.738 56.3427C152.905 55.5098 152.245 54.521 151.794 53.4327C151.343 52.3444 151.111 51.178 151.111 50H137.081Z" fill="black"/>
<path d="M137 30.1039C137 28.8879 137.977 27.9251 139.131 28.0046L139.313 28.0171C142.819 28.2586 146.232 29.307 149.311 31.0882L149.964 31.466C150.603 31.8358 151 32.5422 151 33.3094V51H137V30.1039Z" fill="black"/>
<path d="M74.2869 73C72.9651 73 71.9186 72.0228 72.005 70.8693L72.0186 70.6871C72.2811 67.1809 73.4207 63.7679 75.3568 60.6891L75.7674 60.0362C76.1693 59.3971 76.9372 59 77.7711 59L97 59L97 73L74.2869 73Z" fill="black"/>
<path d="M171.104 27C169.888 27 168.925 27.9772 169.005 29.1307L169.017 29.3129C169.259 32.8191 170.307 36.2321 172.088 39.3109L172.466 39.9638C172.836 40.6029 173.542 41 174.309 41L192 41L192 27L171.104 27Z" fill="black"/>
<path d="M181.081 92C181.081 95.866 177.947 99 174.081 99C170.215 99 167.081 95.866 167.081 92C167.081 88.134 170.215 85 174.081 85C177.947 85 181.081 88.134 181.081 92Z" fill="black"/>
<path d="M197.081 92C197.081 95.866 193.947 99 190.081 99C186.215 99 183.081 95.866 183.081 92C183.081 88.134 186.215 85 190.081 85C193.947 85 197.081 88.134 197.081 92Z" fill="black"/>
<path d="M151.081 8C151.081 11.866 147.947 15 144.081 15C140.215 15 137.081 11.866 137.081 8C137.081 4.13401 140.215 1 144.081 1C147.947 1 151.081 4.13401 151.081 8Z" fill="black"/>
<path d="M165.081 92C165.081 95.866 161.947 99 158.081 99C154.215 99 151.081 95.866 151.081 92C151.081 88.134 154.215 85 158.081 85C161.947 85 165.081 88.134 165.081 92Z" fill="black"/>
<path d="M159 59H192V73H159V59Z" fill="black"/>
<path d="M313.081 49C313.081 52.0204 312.486 55.0112 311.33 57.8017C310.175 60.5922 308.48 63.1277 306.345 65.2635C304.209 67.3992 301.673 69.0934 298.883 70.2492C296.092 71.4051 293.102 72 290.081 72C287.061 72 284.07 71.4051 281.279 70.2492C278.489 69.0934 275.953 67.3992 273.818 65.2635C271.682 63.1277 269.988 60.5922 268.832 57.8017C267.676 55.0112 267.081 52.0204 267.081 49L281.111 49C281.111 50.178 281.343 51.3444 281.794 52.4327C282.245 53.521 282.905 54.5098 283.738 55.3427C284.571 56.1757 285.56 56.8364 286.649 57.2872C287.737 57.738 288.903 57.97 290.081 57.97C291.259 57.97 292.426 57.738 293.514 57.2872C294.602 56.8364 295.591 56.1757 296.424 55.3427C297.257 54.5098 297.918 53.521 298.368 52.4327C298.819 51.3444 299.051 50.178 299.051 49H313.081Z" fill="black"/>
<path d="M299.081 29.1352C299.081 27.9792 300.058 27.064 301.212 27.1395L301.394 27.1514C304.9 27.381 308.313 28.3776 311.392 30.071L312.045 30.4301C312.684 30.7816 313.081 31.4531 313.081 32.1825V49H299.081V29.1352Z" fill="black"/>
<path d="M322.081 3.13522C322.081 1.97923 323.058 1.06396 324.212 1.13949L324.394 1.15142C327.9 1.381 331.313 2.37764 334.392 4.07096L335.045 4.43009C335.684 4.7816 336.081 5.45314 336.081 6.18253V23H322.081V3.13522Z" fill="black"/>
<path d="M267.081 29.1352C267.081 27.9792 268.058 27.064 269.212 27.1395L269.394 27.1514C272.9 27.381 276.313 28.3776 279.392 30.071L280.045 30.4301C280.684 30.7816 281.081 31.4531 281.081 32.1825V49H267.081V29.1352Z" fill="black"/>
<path d="M223.081 30.1352C223.081 28.9792 224.058 28.064 225.212 28.1395L225.394 28.1514C228.9 28.381 232.313 29.3776 235.392 31.071L236.045 31.4301C236.684 31.7816 237.081 32.4531 237.081 33.1825V50H223.081V30.1352Z" fill="black"/>
<path d="M322.081 23H336.081V68C336.081 70.7614 333.843 73 331.081 73H327.081C324.32 73 322.081 70.7614 322.081 68V23Z" fill="black"/>
<path d="M292.081 92C292.081 95.866 288.947 99 285.081 99C281.215 99 278.081 95.866 278.081 92C278.081 88.134 281.215 85 285.081 85C288.947 85 292.081 88.134 292.081 92Z" fill="black"/>
<path d="M308.081 92C308.081 95.866 304.947 99 301.081 99C297.215 99 294.081 95.866 294.081 92C294.081 88.134 297.215 85 301.081 85C304.947 85 308.081 88.134 308.081 92Z" fill="black"/>
<path d="M257.081 8C257.081 11.866 253.947 15 250.081 15C246.215 15 243.081 11.866 243.081 8C243.081 4.13401 246.215 1 250.081 1C253.947 1 257.081 4.13401 257.081 8Z" fill="black"/>
<path d="M267.081 49H281.081V61H267.081V49Z" fill="black"/>
<path d="M223.081 44H237.081V53H223.081V44Z" fill="black"/>
<path d="M281.081 53C281.081 56.8083 280.331 60.5794 278.874 64.0978C277.416 67.6163 275.28 70.8132 272.587 73.5061C269.894 76.199 266.697 78.3351 263.179 79.7925C259.661 81.2499 255.89 82 252.081 82C248.273 82 244.502 81.2499 240.983 79.7925C237.465 78.3351 234.268 76.199 231.575 73.5061C228.882 70.8132 226.746 67.6163 225.289 64.0978C223.831 60.5794 223.081 56.8083 223.081 53H237.001C237.001 54.9803 237.391 56.9413 238.149 58.7709C238.907 60.6005 240.018 62.2629 241.418 63.6632C242.818 65.0635 244.481 66.1743 246.31 66.9321C248.14 67.6899 250.101 68.08 252.081 68.08C254.062 68.08 256.022 67.6899 257.852 66.9321C259.682 66.1743 261.344 65.0635 262.744 63.6632C264.145 62.2629 265.255 60.6005 266.013 58.7709C266.771 56.9413 267.161 54.9803 267.161 53H281.081Z" fill="black"/>
<path d="M44.9581 45.9615C48.653 42.2832 51.1743 37.5919 52.203 32.4808C53.2317 27.3697 52.7217 22.0682 50.7375 17.247C48.7533 12.4257 45.3839 8.30104 41.0555 5.39467C36.7271 2.4883 31.6341 0.93072 26.4204 0.918891C21.2068 0.907062 16.1068 2.44152 11.7652 5.32822C7.42368 8.21492 4.03564 12.3242 2.02955 17.1364C0.0234494 21.9487 -0.510603 27.2477 0.494922 32.3635C1.50045 37.4792 4.00039 42.1819 7.67861 45.8769L12.6293 40.9486L17.5801 36.0202C15.8513 34.2836 14.6763 32.0733 14.2037 29.6689C13.7312 27.2645 13.9822 24.774 14.925 22.5122C15.8679 20.2505 17.4603 18.3191 19.5008 16.9624C21.5413 15.6056 23.9383 14.8844 26.3887 14.89C28.8391 14.8955 31.2329 15.6276 33.2672 16.9936C35.3016 18.3596 36.8852 20.2982 37.8178 22.5642C38.7503 24.8302 38.99 27.3218 38.5065 29.7241C38.023 32.1263 36.8381 34.3312 35.1014 36.06L40.0297 41.0107L44.9581 45.9615Z" fill="#0A73FB"/>
<path d="M17.5524 35.9975L12 40.5L7.67298 45.877L21.2509 59.4549C23.979 62.183 28.4022 62.183 31.1303 59.4548C33.8584 56.7267 33.8584 52.3036 31.1303 49.5754L17.5524 35.9975Z" fill="#0A73FB"/>
<path d="M45.009 45.8955L40.5 40L35.1364 36.0229L35.0311 36.1282C32.3048 38.8545 32.3048 43.2746 35.0311 46.0009C37.7573 48.7271 42.1774 48.7271 44.9037 46.0008L45.009 45.8955Z" fill="#0A73FB"/>
<path d="M18.8536 77.5C18.8536 81.6422 22.2115 85 26.3536 85C30.4958 85 33.8536 81.6422 33.8536 77.5C33.8536 73.3579 30.4958 70 26.3536 70C22.2115 70 18.8536 73.3579 18.8536 77.5Z" fill="#0A73FB"/>
</svg>
